<svg xmlns="http://www.w3.org/2000/svg" xmlns:xlink="http://www.w3.org/1999/xlink" width="1000" height="57899" viewBox="0 0 1000 57899"><svg style="width:308px;height:308px" width="1000" height="1000" viewBox="0 0 1024 1024" id="aixin" y="0"><path class="svgpath" data-index="path_0" fill="#eb4f38" d="M523.435 212.426c15.38-12.31 29.272-25.21 44.903-35.693 49.8-33.583 104.904-47.196 164.41-38.11 83.202 12.776 143.484 58.64 182.648 132.163 21.336 40.003 29.488 83.2 28.654 128.66-.836 42.823-14.11 81.43-33.926 118.456-18.978 35.444-42.544 67.755-68.19 98.702-40.345 48.686-85 93.093-131.79 135.576-50.608 45.86-103.76 88.595-158.398 129.618-11.94 8.964-24.872 12.965-39.35 8.56-5.46-1.705-10.886-4.558-15.505-7.938-79.135-58.608-154.52-121.405-223.796-191.455-40.158-40.59-77.928-83.2-109.808-130.83-19.505-29.21-36.155-59.88-47.258-93.37-7.503-22.79-10.11-46.235-11.04-70.113-4.247-106.115 60.595-207.146 159.763-244.76 74.765-28.25 146.4-19.413 213.906 23.258 15.503 9.705 29.398 21.52 42.11 34.73 1.147 1.212 2.358 2.236 2.67 2.546"/></svg>
<svg style="width:308px;height:308px" width="1000" height="1000" viewBox="0 0 1024 1024" id="aixin-copy" y="1000"><path class="svgpath" data-index="path_0" fill="#969696" d="M707.392 93.355c-77.264 0-149.104 38.76-196.39 102.673-47.257-63.93-119.082-102.673-196.388-102.673-139.28 0-252.596 123.888-252.596 276.18 0 90.854 40.585 154.59 73.21 205.798 94.815 148.743 333.216 333.85 343.313 341.653 9.728 7.52 21.1 11.282 32.448 11.282 11.373 0 22.73-3.76 32.447-11.282 10.11-7.804 248.524-192.91 343.313-341.653 32.64-51.21 73.238-114.944 73.238-205.797 0-152.292-113.316-276.18-252.596-276.18zm133.236 446.827c-90.254 141.63-329.64 326.614-329.64 326.614s-239.36-184.986-329.64-326.614c-33.297-52.287-63.11-101.983-63.11-170.647 0-118.568 87.91-214.725 196.375-214.725 80.155 0 148.967 52.588 179.494 127.875v-.375h.082c2.273 7.85 8.904 13.575 16.797 13.575 7.92 0 14.552-5.723 16.812-13.575h.23c30.598-75.062 99.314-127.5 179.36-127.5 108.438 0 196.376 96.158 196.376 214.726 0 68.663-29.816 118.36-63.14 170.647z"/></svg>
<svg style="width:308px;height:308px" width="1000" height="972.4596391263058" viewBox="0 0 1053 1024" id="anonymous" y="2000"><path class="svgpath" data-index="path_0" fill="#b2b2b2" d="M578.452 455.11V56.88c0-31.567-25.47-56.88-56.89-56.88-31.637 0-56.888 25.466-56.888 56.88v398.23H66.444c-31.568 0-56.88 25.47-56.88 56.89 0 31.638 25.466 56.89 56.88 56.89h398.23v398.23c0 31.567 25.47 56.88 56.89 56.88 31.637 0 56.888-25.466 56.888-56.88V568.89h398.23c31.57 0 56.88-25.47 56.88-56.89 0-31.638-25.465-56.89-56.88-56.89h-398.23z"/></svg>
<svg style="width:308px;height:308px" width="1000" height="1000" viewBox="0 0 1024 1024" id="anonymous2" y="2973"><path class="svgpath" data-index="path_0" fill="#b2b2b2" d="M511.87 62.3c-248.052 0-449.85 201.803-449.85 449.85C62.02 760.2 263.817 962 511.87 962c248.046 0 449.85-201.8 449.85-449.85 0-248.047-201.804-449.85-449.85-449.85zm0 858.803c-225.496 0-408.95-183.455-408.95-408.954S286.373 103.2 511.87 103.2s408.95 183.45 408.95 408.95-183.456 408.953-408.95 408.953zm207.973-432.06H534.98v-184.87c0-12.77-10.35-23.105-23.11-23.105s-23.11 10.336-23.11 23.106v184.87H303.894c-12.76 0-23.11 10.335-23.11 23.105 0 12.773 10.35 23.11 23.11 23.11H488.76v184.863c0 12.774 10.348 23.11 23.11 23.11s23.11-10.336 23.11-23.11V535.26h184.863c12.76 0 23.11-10.337 23.11-23.11 0-12.77-10.35-23.106-23.11-23.106z"/></svg>
<svg style="width:308px;height:308px" width="1000" height="1000" viewBox="0 0 1024 1024" id="anquanbaozhang" y="3973"><path class="svgpath" data-index="path_0" fill="#b2b2b2" d="M155.034 120.21c52.833 6.577 107.422 6.333 164.01-1.456 56.92-7.82 115.634-23.308 176.284-47.163l16.67-6.576 16.64 6.577c60.654 23.856 119.364 39.344 176.287 47.164 56.62 7.79 111.21 8.033 164.04 1.455l56.134-7.004-.73 63.077c-3.03 267.912-46.283 446.045-115.875 565.315-73.048 125.244-172.798 185.29-285.128 214.446l-11.4 2.942-11.334-2.942c-112.33-29.156-212.083-89.202-285.16-214.446C145.91 622.298 102.66 444.194 99.63 176.283l-.73-63.077 56.134 7.003zM512 519.666h275.217c19.155-76.654 31.553-170.04 35.796-283.824-42.617 1.85-86.02-.122-130.214-6.213-58.5-8.034-118.726-23.31-180.802-46.466v336.503zm0 324.594V519.668H236.75c16.307 65.137 37.435 118.18 62.56 161.25C353.235 773.367 427.555 820.133 512 844.26z"/></svg>
<svg style="width:308px;height:308px" width="1000" height="1000" viewBox="0 0 1024 1024" id="anquanbaozhang2" y="4973"><path class="svgpath" data-index="path_0" fill="#11cd6e" d="M155.034 120.21c52.833 6.577 107.422 6.333 164.01-1.456 56.92-7.82 115.634-23.308 176.284-47.163l16.67-6.576 16.64 6.577c60.654 23.856 119.364 39.344 176.287 47.164 56.62 7.79 111.21 8.033 164.04 1.455l56.134-7.004-.73 63.077c-3.03 267.912-46.283 446.045-115.875 565.315-73.048 125.244-172.798 185.29-285.128 214.446l-11.4 2.942-11.334-2.942c-112.33-29.156-212.083-89.202-285.16-214.446C145.91 622.298 102.66 444.194 99.63 176.283l-.73-63.077 56.134 7.003zM512 519.666h275.217c19.155-76.654 31.553-170.04 35.796-283.824-42.617 1.85-86.02-.122-130.214-6.213-58.5-8.034-118.726-23.31-180.802-46.466v336.503zm0 324.594V519.668H236.75c16.307 65.137 37.435 118.18 62.56 161.25C353.235 773.367 427.555 820.133 512 844.26z"/></svg>
<svg style="width:308px;height:308px" width="1000" height="1000" viewBox="0 0 1024 1024" id="close" y="5973"><path class="svgpath" data-index="path_0" fill="#7f7f7f" d="M511.527 62.97c-248.32 0-449.613 201.29-449.613 449.612 0 248.316 201.292 449.607 449.613 449.607 248.316 0 449.607-201.292 449.607-449.608 0-248.32-201.29-449.613-449.607-449.613zm0 854.257c-223.482 0-404.65-181.17-404.65-404.645 0-223.482 181.168-404.65 404.65-404.65 223.476 0 404.645 181.168 404.645 404.65 0 223.476-181.17 404.645-404.645 404.645z"/><path class="svgpath" data-index="path_1" fill="#7f7f7f" d="M702.877 321.207c-7.973-7.972-20.982-7.972-28.954 0l-162.42 162.418-162.377-162.377c-7.973-7.974-21.02-7.974-28.954 0-7.972 7.97-7.972 20.98 0 28.952L482.55 512.578 320.172 674.956c-7.972 7.974-7.972 20.982 0 28.955 7.974 7.972 20.98 7.972 28.954 0l162.38-162.377L673.922 703.95c7.972 7.974 20.98 7.974 28.954 0 7.972-7.97 7.972-20.98 0-28.953L540.46 512.58l162.417-162.42c7.972-7.972 7.972-20.98 0-28.953z"/></svg>
<svg style="width:308px;height:308px" width="1000" height="1000" viewBox="0 0 1024 1024" id="close2" y="6973"><path class="svgpath" data-index="path_0" fill="#7f7f7f" d="M536.474 529.152L763.34 302.285c6.657-6.656 6.657-17.46 0-24.115s-17.458-6.656-24.166 0L512.307 505.037 285.49 278.17c-6.655-6.656-17.458-6.656-24.114 0s-6.656 17.46 0 24.115l226.867 226.867L261.376 756.02c-6.656 6.706-6.656 17.51 0 24.166 3.328 3.328 7.68 5.017 12.083 5.017s8.754-1.638 12.03-5.017L512.36 553.318l226.868 226.868c3.328 3.328 7.73 5.017 12.032 5.017 4.403 0 8.755-1.638 12.083-5.017 6.657-6.656 6.657-17.46 0-24.167L536.475 529.15z"/></svg>
<svg style="width:308px;height:308px" width="1000" height="1000" viewBox="0 0 1024 1024" id="dianhua" y="7973"><path class="svgpath" data-index="path_0" fill="#b2b2b2" d="M522.472 36.022c-263.073 0-476.336 213.266-476.336 476.342 0 263.054 213.263 476.32 476.336 476.32 263.075 0 476.32-213.265 476.32-476.32 0-263.076-213.245-476.342-476.32-476.342zm185.355 695.344c-33.57 33.588-158.75 1.75-282.426-121.91-123.675-123.7-155.457-248.858-121.926-282.428 29.136-29.096 64.612-79.957 117.785-13.75 53.21 66.225 27.032 84.723-2.957 114.753-21.025 20.986 22.793 74.065 68.615 119.888 45.862 45.803 98.9 89.585 119.926 68.66 30.03-30.033 48.544-56.193 114.733-2.978 66.186 53.232 15.366 88.667-13.75 117.766z"/></svg>
<svg style="width:308px;height:308px" width="1000" height="1000" viewBox="0 0 1024 1024" id="dianhua2" y="8973"><path class="svgpath" data-index="path_0" fill="#11cd6e" d="M522.472 36.022c-263.073 0-476.336 213.266-476.336 476.342 0 263.054 213.263 476.32 476.336 476.32 263.075 0 476.32-213.265 476.32-476.32 0-263.076-213.245-476.342-476.32-476.342zm185.355 695.344c-33.57 33.588-158.75 1.75-282.426-121.91-123.675-123.7-155.457-248.858-121.926-282.428 29.136-29.096 64.612-79.957 117.785-13.75 53.21 66.225 27.032 84.723-2.957 114.753-21.025 20.986 22.793 74.065 68.615 119.888 45.862 45.803 98.9 89.585 119.926 68.66 30.03-30.033 48.544-56.193 114.733-2.978 66.186 53.232 15.366 88.667-13.75 117.766z"/></svg>
<svg style="width:308px;height:308px" width="1000" height="1000" viewBox="0 0 1024 1024" id="dianhua3" y="9973"><path class="svgpath" data-index="path_0" fill="#54c5ff" d="M514.05 65.03c-246.752 0-446.78 200.028-446.78 446.78 0 246.744 200.027 446.77 446.78 446.77 246.745 0 446.772-200.026 446.772-446.77 0-246.752-200.027-446.78-446.773-446.78zm0 854.714c-225.29 0-407.942-182.65-407.942-407.936 0-225.29 182.652-407.94 407.94-407.94 225.285 0 407.937 182.652 407.937 407.94 0 225.285-182.652 407.936-407.936 407.936zm90.373-367.204c-20.44 0-35.92 18.398-54.46 18.398-18.395 0-99.136-79.574-99.136-99.14 0-19.56 18.398-29.2 18.398-49.492 0-14.602-54.46-103.954-76.8-103.954-22.34 0-76.8 39.86-76.8 76.796 0 106.878 197.11 311.722 320.483 311.722 34.018 0 76.8-35.918 76.8-76.8.29-15.33-88.19-77.53-108.485-77.53"/></svg>
<svg style="width:308px;height:308px" width="1000" height="1000" viewBox="0 0 1024 1024" id="down" y="10973"><path class="svgpath" data-index="path_0" fill="#5e5e5e" d="M52.335 261.072c-31.27 30.397-31.27 79.722 0 110.194l403.212 391.718c31.325 30.382 82.114 30.382 113.377 0L972.12 371.266c31.326-30.466 31.326-79.793 0-110.194-31.28-30.45-82.057-30.45-113.39 0l-346.496 336.64-346.457-336.64c-31.325-30.448-82.105-30.448-113.446 0z"/></svg>
<svg style="width:308px;height:308px" width="1000" height="1000" viewBox="0 0 1024 1024" id="iconfont-androidbus" y="11973"><path class="svgpath" data-index="path_0" fill="#272636" d="M160 704c0 38.396 27.728 49.062 53.334 72.542v76.792c0 23.458 19.198 42.668 42.666 42.668h42.666c23.468 0 42.668-19.208 42.668-42.668v-42.666h341.332v42.666c0 23.458 19.208 42.668 42.668 42.668H768c23.458 0 42.666-19.208 42.666-42.668v-76.792C836.272 753.062 864 740.272 864 704V296.668C864 147.334 699.728 128 512 128s-352 19.334-352 168.668V704zm160 31.978c-36.272 0-64-27.728-64-64 0-36.27 27.728-64 64-64s64 27.73 64 64c0 36.272-27.728 64-64 64zm384 0c-36.272 0-64-27.728-64-64 0-36.27 27.728-64 64-64s64 27.73 64 64c0 36.272-27.728 64-64 64zm64-245.312H256V277.334h512v213.332z"/></svg>
<svg style="width:308px;height:308px" width="1000" height="1000" viewBox="0 0 1024 1024" id="iconfont-bofang" y="12973"><path class="svgpath" data-index="path_0" fill="#272636" d="M512 52.48c-249.22 0-451.256 202.036-451.256 451.257S262.778 954.992 512 954.992s451.256-202.034 451.256-451.255S761.22 52.48 512 52.48zm191.247 476.93L417.663 694.29c-19.763 11.41-44.466-2.852-44.466-25.672V338.856c0-22.82 24.703-37.083 44.466-25.673l285.584 164.88c19.763 11.41 19.763 39.937 0 51.347z"/></svg>
<svg style="width:308px;height:308px" width="1000" height="1000" viewBox="0 0 1024 1024" id="iconfont-cry" y="13973"><path class="svgpath" data-index="path_0" fill="#272636" d="M512 64C264.64 64 64 264.64 64 512c0 247.424 200.64 448 448 448 247.488 0 448-200.576 448-448 0-247.36-200.512-448-448-448zm0 832.768c-212.48 0-384.768-172.224-384.768-384.768S299.52 127.232 512 127.232 896.64 299.52 896.64 512 724.48 896.768 512 896.768zM357.312 384c20.672 0 37.376 16.768 37.376 37.376 0 20.672-16.704 37.44-37.376 37.44-20.608 0-37.376-16.768-37.376-37.44 0-20.608 16.768-37.376 37.376-37.376zm314.624 0c20.608 0 37.376 16.768 37.376 37.376 0 20.672-16.768 37.44-37.376 37.44s-37.44-16.768-37.44-37.44c0-20.608 16.832-37.376 37.44-37.376zM352 704c-17.664 0-32-14.336-32-32s14.336-32 32-32h320c17.664 0 32 14.336 32 32s-14.336 32-32 32H352z"/></svg>
<svg style="width:308px;height:308px" width="1000" height="1000" viewBox="0 0 1024 1024" id="iconfont-dianhua(2)" y="14973"><path class="svgpath" data-index="path_1" fill="#272636" d="M352.093 173.568c-14.308-20.46-36.145-49.784-58.858-73.347-24.858-25.775-43.41-37.27-60.168-37.27-33.5 0-77.73 43.053-107.96 83.346-18.943 25.275-63.02 90.655-63.02 151.712 0 57.32 38.593 131.99 70.966 184.537 43.675 70.863 104.08 147.182 170.077 214.907l21.56 21.566c67.946 66.208 144.272 126.604 215.1 170.25 52.54 32.38 127.182 70.982 184.537 70.982 61.085 0 126.444-44.078 151.718-63.027 40.293-30.217 83.34-74.44 83.34-107.954 0-16.752-11.495-35.31-37.272-60.168-23.52-22.686-52.874-44.538-73.347-58.873-27.446-19.222-56.23-37.022-81.044-50.127-39.36-20.766-55.81-23.167-64.76-23.167-17.327 0-32.512 9.256-45.108 27.502-8.7 12.603-15.352 27.988-21.796 42.874-5.93 13.724-12.136 27.64-17.105 33.897l-2.115 2.658-3.298-.786c-5.345-1.26-26.25-7.738-70.704-38.017-35.198-23.974-73.444-55.06-102.31-83.153-28.142-28.907-59.234-67.153-83.257-102.4-30.273-44.482-36.758-65.367-38.025-70.704l-.78-3.298 2.644-2.11c6.708-5.35 22.895-12.36 33.61-17 15.31-6.64 30.635-13.27 43.174-21.92 18.247-12.58 27.502-27.76 27.502-45.114 0-8.95-2.408-25.4-23.174-64.746-13.066-24.774-30.866-53.564-50.13-81.052zm29.367 148.365c-1.392 2.053-4.677 5.463-12.4 10.056-8.88 5.295-20.683 10.382-31.093 14.87-13.458 5.84-27 11.705-37.676 18.79-16.658 11.023-24.94 24.35-24.605 39.61.153 7.835.64 31.663 46.11 98.413 25.428 37.32 58.37 77.822 88.142 108.35 30.913 30.148 71.413 63.098 108.727 88.52 66.708 45.434 90.563 45.935 98.4 46.102h.013c15.84 0 28.935-8.364 39.777-24.857 7.015-10.647 12.832-24.1 18.47-37.105 4.884-11.3 9.783-22.65 15.03-31.427 4.565-7.64 7.96-10.94 10.007-12.365l1.755-1.217 2.115.327c3.87.6 15.783 3.53 42.784 17.718 21.795 11.455 47.515 27.223 72.415 44.398 65.62 45.275 91.662 75.93 96.255 85.81l.863 1.866-.6 1.963c-.78 2.512-4.37 11.942-18.204 27.905-12.777 14.74-30.535 30.773-50.02 45.136-44.65 32.895-90.773 52.534-123.397 52.534-36.34 0-95.394-23.543-162.005-64.594-68.197-42.018-141.837-100.313-207.363-164.147l-.043-.05-21.113-21.107c-63.91-65.61-122.2-139.248-164.204-207.405-41.044-66.618-64.593-125.67-64.593-162.018 0-32.63 19.638-78.754 52.54-123.39 14.377-19.498 30.395-37.27 45.135-50.026 15.99-13.863 25.414-17.44 27.92-18.198l1.962-.606 1.85.87c9.883 4.6 40.543 30.64 85.805 96.25 17.16 24.884 32.93 50.598 44.397 72.407 14.17 26.967 17.106 38.908 17.703 42.79l.334 2.08-1.194 1.746z"/></svg>
<svg style="width:308px;height:308px" width="1000" height="1000" viewBox="0 0 1024 1024" id="iconfont-ditu" y="15973"><path class="svgpath" data-index="path_0" fill="#272636" d="M399.747 677.264c1.755 2.652 3.51 4.765 4.906 6.294 41.23 52.156 82.772 86.868 84.573 88.352l28.94 24.054 28.808-24.235c1.8-1.484 43.21-36.6 84.348-88.62 1.395-1.575 3.195-3.733 4.95-6.385C695.1 596.602 768.24 480.51 784.76 379.973c3.195-22.885 3.285-36.78 3.285-38.307.54-75.088-28.086-145.678-80.612-198.51C656.573 91.99 589.283 63.8 517.988 63.8c-71.025 0-138.134 28.19-188.995 79.357-52.797 53.1-81.603 124.052-81.062 199.723 0 1.214.09 15.107 3.15 36.914 17.735 107.594 100.282 231.915 148.667 297.47zm118.24-431.594c62.024 0 112.524 50.403 112.524 112.406 0 62.003-50.5 112.406-112.523 112.406S405.464 420.08 405.464 358.076c0-62.003 50.5-112.406 112.523-112.406z"/><path class="svgpath" data-index="path_1" fill="#272636" d="M942.74 286.814l-30.72 8.967v.105l-88.535 26.138c-.88 15.8-1.23 28.224-4.176 52.26l92.71-31.45V836.02l-263.14 77.49v.41l-313.737-90.864v-.13l-.208.07-.24-.07v.15l-224.42 75.23v-486.81l92.91-23.458c-2.245-13.38-3.142-27.655-3.142-41.928v-1.785l-134.65 33.9v579.852l44.883-15.166 224.66-75.31 313.943 90.923 307.098-90.434V282.904l-13.237 3.91z"/></svg>
<svg style="width:308px;height:308px" width="1000" height="1000" viewBox="0 0 1024 1024" id="iconfont-dizhi" y="16973"><path class="svgpath" data-index="path_0" fill="#272636" d="M529.216 15.424c-201.28 0-364.608 166.336-364.608 371.968 0 78.592 24.064 151.68 64.96 211.712 1.984 3.456 3.776 6.848 6.208 9.92l248.32 319.04c12.416 16.704 28.8 24.704 45.184 24.704s32.704-8 45.12-24.704l248.384-319.04c2.304-3.072 4.16-6.4 5.952-9.536 41.024-60.224 65.152-133.184 65.152-212.032C893.76 181.76 730.624 15.424 529.216 15.424zm239.616 541.44l-1.856 2.816-1.6 2.88-1.216 2.048L529.216 866.56 294.272 564.608l-1.472-2.56-1.6-2.944-1.728-2.304c-34.048-49.92-51.968-108.672-51.968-169.408 0-164.288 130.752-297.6 291.648-297.6S820.8 223.104 820.8 387.392c0 60.672-17.92 119.552-51.968 169.472zM529.216 238.592c-80.576 0-145.856 66.688-145.856 148.864 0 82.048 65.28 148.8 145.856 148.8s145.856-66.752 145.856-148.8c0-82.176-65.344-148.864-145.856-148.864zm0 223.296c-40.192 0-72.96-33.344-72.96-74.432 0-41.152 32.704-74.368 72.96-74.368s72.96 33.216 72.96 74.368c-.064 41.024-32.768 74.432-72.96 74.432zm195.52 406.976"/></svg>
<svg style="width:308px;height:308px" width="1000" height="1000" viewBox="0 0 1024 1024" id="iconfont-duduyinleappicon4101" y="17973"><path class="svgpath" data-index="path_0" fill="#272636" d="M778.36 246.793h-14.665v-32.746c0-56.425-45.905-102.33-102.33-102.33s-102.33 45.905-102.33 102.33v32.746h-96.837v-32.746c0-56.425-45.905-102.33-102.33-102.33s-102.33 45.905-102.33 102.33v32.746h-10.193c-64.912 0-117.72 52.81-117.72 117.72v411.29c0 64.91 52.807 117.72 117.72 117.72H778.36c64.91 0 117.72-52.81 117.72-117.72v-411.29c0-64.91-52.81-117.72-117.72-117.72zm-157.928-32.746c0-22.57 18.362-40.932 40.932-40.932s40.933 18.362 40.933 40.932v32.746h-81.865v-32.746zm80.57 94.144c-4.557 17.636-20.6 30.7-39.638 30.7s-35.08-13.064-39.636-30.7H701zm-382.067-94.143c0-22.57 18.363-40.932 40.933-40.932s40.932 18.362 40.932 40.932v32.746h-81.865v-32.746zm80.57 94.144c-4.556 17.636-20.6 30.7-39.637 30.7s-35.08-13.064-39.637-30.7h79.274zm-152.16 0h10.702c5.15 51.64 48.848 92.1 101.82 92.1s96.67-40.46 101.82-92.1h97.855c5.15 51.64 48.848 92.1 101.82 92.1s96.67-40.46 101.82-92.1h15.176c31.056 0 56.322 25.267 56.322 56.324v100.243H191.02V364.514c.002-31.056 25.268-56.323 56.324-56.323zM778.36 832.125H247.344c-31.056 0-56.323-25.265-56.323-56.322V495.456h643.66v280.346c.002 31.057-25.265 56.322-56.32 56.322z"/></svg>
<svg style="width:308px;height:308px" width="1000" height="1000" viewBox="0 0 1024 1024" id="iconfont-gerenzhongxin" y="18973"><path class="svgpath" data-index="path_0" fill="#272636" d="M314.326 564.835c29.066-8.013 35.582-40.993 33.538-62.965-2.36-25.34-16.755-39.886-31.572-47.566-36.607-18.96-61.587-56.696-61.587-100.244 0-51.984 35.598-95.69 84.08-109.062 0 0 16.946-14.128 10.37-39.862-5.49-21.47-28.166-38.162-59.298-24.184-66.565 29.88-112.854 95.82-112.854 172.536 0 61.012 29.366 115.15 74.813 149.88-109.81 45.368-187.942 150.103-187.942 281.72l.206.004c-.01.38-.112.735-.112 1.116 0 21.657 17.556 39.213 39.212 39.213 21.66 0 39.215-17.555 39.215-39.212 0-1.726-.292-3.373-.507-5.04 3.515-103.364 75.25-189.538 172.438-216.333zm646.687 283.272c0-97.203-39.347-185.203-102.963-248.983l-.08.08c-7.707-7.873-18.425-12.79-30.314-12.79-23.448 0-42.454 19.007-42.454 42.454 0 11.89 4.916 22.605 12.792 30.31l-.27.272c46.208 48.005 74.773 113.405 74.773 185.623 0 1.023-.14 2.01-.15 3.033h.277c-.005.276-.082.532-.082.81 0 24.433 19.805 44.237 44.237 44.237 24.43 0 44.236-19.804 44.236-44.237 0-.278-.078-.534-.082-.81h.08zm-352.595-725.93c-126.003 0-228.15 102.14-228.15 228.15 0 71.106 32.55 134.595 83.543 176.436-122.54 55.245-207.988 178.198-207.988 321.343h.406c-.005.276-.082.532-.082.81 0 24.433 19.807 44.237 44.237 44.237 24.432 0 44.237-19.804 44.237-44.237 0-.587-.15-1.136-.173-1.72-.044-.705-.107-1.406-.107-2.122 0-147.212 118.232-266.554 264.08-266.554.218 0 .428.033.647.033v-.11c125.7-.353 227.502-102.33 227.502-228.116-.002-126.01-102.15-228.15-228.152-228.15zm0 373.045c-80.185 0-145.187-65-145.187-145.185 0-80.186 65.003-145.19 145.188-145.19 80.184 0 145.186 65.003 145.186 145.19 0 80.184-65.003 145.185-145.186 145.185z"/></svg>
<svg style="width:308px;height:308px" width="1000" height="1000" viewBox="0 0 1024 1024" id="iconfont-huadonganniuyes" y="19973"><path class="svgpath" data-index="path_0" fill="#272636" d="M65.007 551.082c0-37.79 7.402-73.89 22.206-108.295 14.803-34.407 34.628-64.05 59.476-88.935 24.846-24.884 54.49-44.71 88.934-59.475 34.443-14.768 70.542-22.17 108.295-22.206h334.76c37.79 0 73.89 7.402 108.293 22.207 34.407 14.803 64.053 34.628 88.935 59.475 24.885 24.846 44.71 54.49 59.476 88.935 14.77 34.443 22.17 70.54 22.206 108.295.037 37.753-7.364 73.852-22.206 108.297-14.84 34.44-34.665 64.085-59.476 88.93-24.81 24.847-54.454 44.674-88.935 59.476-34.478 14.806-70.578 22.206-108.293 22.206H343.917c-37.79 0-73.888-7.4-108.295-22.206-34.407-14.802-64.05-34.63-88.935-59.476-24.884-24.845-44.71-54.49-59.476-88.93-14.765-34.446-22.166-70.545-22.203-108.298zm613.726 223.173c30.242 0 59.086-5.876 86.537-17.63 27.45-11.754 51.2-27.655 71.246-47.704 20.05-20.046 35.95-43.796 47.703-71.247 11.755-27.45 17.63-56.296 17.63-86.535 0-30.24-5.875-59.085-17.63-86.535-11.753-27.452-27.655-51.2-47.704-71.248-20.047-20.05-43.797-35.95-71.246-47.704-27.45-11.752-56.297-17.63-86.537-17.63-30.24 0-59.085 5.88-86.536 17.63-27.45 11.755-51.198 27.656-71.246 47.705-20.048 20.048-35.95 43.797-47.703 71.248-11.755 27.45-17.63 56.295-17.63 86.535 0 30.24 5.877 59.085 17.63 86.535 11.753 27.45 27.655 51.2 47.704 71.248 20.05 20.05 43.798 35.95 71.247 47.704 27.45 11.755 56.297 17.63 86.536 17.63z"/></svg>
<svg style="width:308px;height:308px" width="1000" height="1000" viewBox="0 0 1024 1024" id="iconfont-huawu" y="20973"><path class="svgpath" data-index="path_0" fill="#272636" d="M285.32 222.664s-74.4 56.488-97.35 118.99c-23.007 62.608-34.017 99.926-36.78 127.114-2.765 27.245-31.2 29.247-43.148 19.174-11.947-10.074-17.478-65.59 18.363-146.288 35.842-80.7 123.072-167.463 130.43-170.495 7.304-2.982-4.642-19.12 18.363-40.297 22.957-21.23 125.788-75.663 258.043-65.535 132.253 10.075 167.205 30.22 198.405 52.373 31.203 22.262 29.426 52.483 29.426 52.483s60.525 31.74 112.85 127.548c52.43 95.864 56.973 144.77 57.22 159.61.244 14.95-6.863 26.268-21.083 28.814-14.316 2.492-26.458 10.075-36.332-28.27s-10.072-76.152-33.077-113.738c-22.905-37.587-87.922-112.004-97.994-116.498-10.072-4.603-7.354 4.008-27.1 6.013-19.747 2.003-76.72-50.37-164.888-53.403-88.17-3.033-163.404 23.178-195.59 39.375-32.14 16.14-69.756 3.032-69.756 3.032zm447.364 602.37c-16.936 11.752-41.617 27.242-68.57 39.16-18.91 8.338-37.028 14.297-52.036 18.52-1.874-10.56-8.785-18.465-16.882-18.465H418.61c-9.53 0-17.328 10.774-17.328 24.043v48.15c0 13.214 7.8 24.048 17.33 24.048h176.585c9.576 0 17.376-10.833 17.376-24.047v-4.71c24.78-7.91 89.898-29.79 121.787-51.89 14.662-10.126 25.327-19.66 32.98-27.73h46.454c14.91 0 27.15-13.374 27.15-29.732v-302.7c0-16.303-12.24-29.682-27.15-29.682h-54.107c-14.958 0-27.104 13.38-27.104 29.682v302.702l.1 2.652zM895.002 517.19H869.38V805.7h25.622c36.433 0 66.25-38.942 66.25-86.494v-115.47c0-47.607-29.816-86.547-66.25-86.547zM124.63 528.78h24.09v288.51h-24.09c-34.212 0-62.253-38.94-62.253-86.546v-115.47c0-47.555 28.04-86.495 62.252-86.495zm5.725 22.636s-21.127 2.005-39.097 16.684c-17.872 14.622-16.49 35.256-16.49 35.256v124.57h31.643s-2.32-107.888 0-123.542c2.323-15.65 23.944-15.164 23.944-15.164v-37.804zm89.255-61.418c-14.91 0-27.1 13.38-27.1 29.682v302.702c0 16.357 12.19 29.732 27.1 29.732h54.205c14.91 0 27.055-13.374 27.055-29.732V519.68c0-16.303-12.146-29.682-27.055-29.682H219.61z"/></svg>
<svg style="width:308px;height:308px" width="1000" height="1000" viewBox="0 0 1024 1024" id="iconfont-iconfonti2-copy-copy-copy" y="21973"><path class="svgpath" data-index="path_0" fill="#272636" d="M747.245 81.064c-28.497-29.315-74.74-29.315-103.307 0l-367.236 378.01c-28.483 29.368-28.483 76.983 0 106.292l367.236 377.997c28.562 29.367 74.806 29.367 103.307 0 28.546-29.325 28.546-76.93 0-106.304l-315.6-324.842 315.6-324.803c28.544-29.367 28.543-76.973 0-106.356z"/></svg>
<svg style="width:308px;height:308px" width="1000" height="1000" viewBox="0 0 1024 1024" id="iconfont-iconfonticon19" y="22973"><path class="svgpath" data-index="path_0" fill="#272636" d="M381.158 687.76c41.927 42.043 92.095 61.513 141.65 58.408 42.77-2.644 85.12-22.114 121.336-58.407 31.12-30.046 56.72-76.152 73.66-131.876 16.903-9.16 38.71-26.023 58.64-57.374 68.984-108.345 8.507-243.518-92.402-321.586 2.107-9.083 3.22-18.473 3.22-28.13 0-80.33-77.303-145.483-172.695-145.483S341.835 68.465 341.835 148.794c0 7.742.728 15.33 2.107 22.765-106.466 79.18-161.96 222.632-95.544 326.952 20.658 32.5 43.384 49.554 60.516 58.33 14.717 50.705 37.06 94.587 72.242 130.92zm299.32-513.556c-49.134-37.022-107.426-60.554-164.876-61.13-58.638-.612-113.94 18.896-160.544 50.552 25.41-53.694 87.726-91.674 160.505-91.674 77.455.038 143.03 43.04 164.914 102.252zM220.804 799.978h124.48c-1.112 7.474-1.686 15.14-1.686 22.92 0 85.463 68.87 155.753 156.71 163.302 2.415-25.218-1.225-32.576-15.75-67.76 5.02-1.838 10.002-3.717 15.022-5.44 11.766 13.72 18.588 23.377 22.458 31.77 3.91-8.392 10.73-18.05 22.458-31.77 5.02 1.723 10.04 3.602 15.06 5.44-14.257 34.494-18.013 42.274-15.865 66.38 82.17-12.533 144.983-80.29 144.983-161.923 0-7.78-.575-15.445-1.686-22.92h120.878c58.676 64.847 84.545 145.33 87.343 236.736H137.448c.767-86.692 26.713-166.1 83.357-236.735zm258.58-384.786c2.722 2.836 5.443 5.673 8.125 8.47 47.983-16.252 86.653-41.354 119.154-72.243l83.013 51.048c-4.867 90.755-22.076 163.035-52.85 213.624-28.592 47.025-69.638 75.04-124.175 80.904-54.575-5.863-95.583-33.88-124.174-80.904-29.28-48.136-46.297-115.934-52.045-200.556 43.576 1.303 85.657-2.836 125.744-14.027 30.354-8.394 59.442-20.888 87-38.212-22.306 19.392-45.838 36.063-69.792 51.893zm-116.7-58.83c47.025-23.723 94.012-47.483 141-71.207 5.518 6.937 10.998 13.797 16.517 20.658-48.02 36.83-100.718 52.888-157.517 50.55zm-73.738-60.093c20.696-51.05 59.557-91.905 115.205-123.485 4.56 6.975 9.083 13.95 13.605 20.887-51.777 28.552-95.16 62.432-128.81 102.597z"/></svg>
<svg style="width:308px;height:308px" width="1000" height="999.0243902439024" viewBox="0 0 1025 1024" id="iconfont-iconrenzheng01" y="23973"><path class="svgpath" data-index="path_0" fill="#272636" d="M959.247 256.003H64.027C0 256.003 0 320.503 0 320.503v386.655c0 60.846 64.028 60.846 64.028 60.846H959.42c63.854-.307 64.54-64.05 64.54-64.05V320c0-63.997-64.713-63.997-64.713-63.997zm-352.53 116.892c11.186 16.004 22.78 33.575 34.772 52.76-8.81 4.013-20.385 10.797-34.772 20.386-9.598-19.186-19.995-36.756-31.18-52.76l31.18-20.385zm-388.538 1.197c5.576 5.608 12.78 12.802 21.58 21.592 7.982 7.194 16.793 15.994 26.38 26.38l-32.376 27.58c-10.397-12.782-25.184-29.984-44.37-51.566l28.785-23.986zm-25.184 247.036c7.193-7.192 10.795-15.983 10.795-26.38v-94.737h-28.784v-37.176h67.16v101.932c11.184-10.387 21.97-20.386 32.377-29.984 3.182 10.397 7.194 22 11.993 34.782-26.39 24.785-50.367 50.357-71.96 76.748l-21.58-25.184zm245.828 16.783c-4.01 5.588-7.193 9.988-9.588 13.19-37.586-30.37-61.163-67.936-70.75-112.715-13.61 44.78-38.375 82.345-74.355 112.716-8-14.387-17.2-27.178-27.577-38.373 34.363-28.774 55.555-56.752 63.558-83.942 9.59-25.572 13.98-76.748 13.19-153.496h41.967c0 17.6-.798 39.182-2.395 64.754 7.982 84.75 36.37 141.503 85.14 170.29-4.79 6.404-11.206 15.584-19.188 27.577zm160.7 0l-17.99-28.775c4.79-6.395 7.194-13.59 7.194-21.59v-91.137h-22.79V459.23h62.36v113.926c3.183-2.395 7.594-5.996 13.19-10.796 5.588-3.99 9.6-7.194 11.995-9.588 0 8.002 2.395 21.192 7.193 39.57-10.397 7.195-27.188 19.597-50.367 37.178-4.8 3.99-8.39 6.784-10.786 8.39zm249.43 1.198H647.488v-34.77h22.79v-142.7h38.373v142.7h31.17v-173.88h-83.94v-38.375h189.474v38.374h-67.16v63.557h59.966v38.374h-59.966v71.95h70.76v34.77z"/></svg>
<svg style="width:308px;height:308px" width="1000" height="1000" viewBox="0 0 1024 1024" id="iconfont-jiantouyou" y="24973"><path class="svgpath" data-index="path_0" fill="#b2b2b2" d="M276.755 942.936c28.497 29.315 74.74 29.315 103.307 0l367.236-378.01c28.483-29.368 28.483-76.983 0-106.292L380.062 80.637c-28.562-29.367-74.806-29.367-103.307 0-28.546 29.325-28.546 76.93 0 106.304l315.6 324.842-315.6 324.803c-28.544 29.367-28.543 76.973 0 106.356z"/></svg>
<svg style="width:308px;height:308px" width="1000" height="1000" viewBox="0 0 1024 1024" id="iconfont-jiaoyu" y="25973"><path class="svgpath" data-index="path_0" fill="#272636" d="M940.614 340.768L543.6 204.258c-24.747-8.96-19.557-9.017-44.106-.13L100.082 339.54c-24.55 8.887-24.39 23.352.358 32.31l94.91 32.19c-42.025 40.728-44.75 83.07-45.317 132.17-16.246 6.26-27.773 22.006-27.773 40.453 0 16.942 9.72 31.603 23.884 38.735-6.73 49.884-25.99 106.872-82.586 174.4 27.995 21.674 42.445 28.898 64.12 36.123 79.116-33.976 69.497-124.302 63.338-214.146 10.868-7.872 17.943-20.66 17.943-35.11 0-15.488-8.13-29.073-20.347-36.738 1.407-48.108 11.885-91.145 47.85-118.99.296-.738 1.13-1.413 2.682-2.034l272.932-110.31c10.12-4.06 21.615.858 25.676 10.978l.357.898c4.06 10.12-.855 21.617-10.982 25.67l-230.65 92.21 206.4 70.012c24.747 8.958 19.552 9.015 44.102.13l393.993-135.416c24.55-8.883 24.388-23.348-.36-32.306zM502.25 560.74l-249.84-84.69v63.696c13.06 11.964 20.27 29.133 20.27 48.206 0 17.154-5.996 32.757-16.117 44.43 3.31 10 9.078 19.775 17.32 22.85 145.4 80.378 346.377 79.475 508.033-8.126 11.99-9.98 21.26-22.344 21.26-34.32v-140.29l-256.633 88.373c-24.545 8.886-19.547 8.828-44.294-.13zm0 0"/></svg>
<svg style="width:308px;height:308px" width="1000" height="1000" viewBox="0 0 1024 1024" id="iconfont-kulian" y="26973"><path class="svgpath" data-index="path_0" fill="#272636" d="M885.194 765.564h.06v-.383l-.06.384zm-67.782-557.788c-168.4-168.428-442.425-168.428-610.824 0-168.428 168.4-168.428 442.425 0 610.824 168.4 168.43 442.425 168.43 610.824 0 168.428-168.4 168.428-442.425 0-610.824m-43.834 567.02c-144.232 144.234-378.954 144.203-523.17 0-144.25-144.262-144.25-378.94 0-523.2 144.216-144.218 378.938-144.248 523.17 0 144.232 144.216 144.232 378.968 0 523.2M377.25 467.703c25.636 0 46.495-20.864 46.495-46.51 0-25.682-20.86-46.577-46.495-46.577-25.697 0-46.56 20.895-46.56 46.576 0 25.648 20.863 46.512 46.56 46.512m267.848.075c25.667 0 46.556-20.91 46.556-46.56 0-25.678-20.89-46.542-46.556-46.542-25.636 0-46.5 20.864-46.5 46.54 0 25.652 20.864 46.562 46.5 46.562m1.62 240.142l-2.54-.825c-41.69-18.88-86.42-28.48-132.822-28.48-47.934 0-93.268 9.697-134.777 28.753l-2.512.767c-1.56.425-3.672 1.035-6.303 1.035-15.262 0-27.65-12.388-27.65-27.59 0-7.218 3.393-14.47 8.994-19.914l-.34-1.682 7.066-3.182c49.556-22.424 103.46-34.232 155.86-34.232 53.377 0 105.685 11.505 156.16 34.51 8.868 4.864 14.41 14.192 14.41 24.318 0 17.834-16.122 32.485-35.547 26.52"/></svg>
<svg style="width:308px;height:308px" width="1000" height="1000" viewBox="0 0 1024 1024" id="iconfont-qian" y="27973"><path class="svgpath" data-index="path_0" fill="#272636" d="M761.11 174.856h-93.467L562.55 368.498c-28.03 52.478-45.17 87.36-51.43 104.648h-1.79c-18.49-42.038-70.66-141.465-156.524-298.29h-98.834l183.804 315.732h-150.71v69.764h176.648v96.152h-176.65v70.66h176.65V867.14h87.652V727.164h170.388v-70.66H551.367v-96.15h170.388v-69.765H575.518L761.11 174.856z"/></svg>
<svg style="width:308px;height:308px" width="1000" height="1000" viewBox="0 0 1024 1024" id="iconfont-shijian" y="28973"><path class="svgpath" data-index="path_0" fill="#272636" d="M569.21 155.6c-214.854 0-389.658 175.982-389.658 392.284 0 216.303 174.804 392.29 389.657 392.29 214.845 0 389.636-175.987 389.636-392.29 0-216.302-174.79-392.285-389.637-392.285zm0 709.85c-173.94 0-315.437-142.458-315.437-317.565S395.27 230.32 569.21 230.32c173.934 0 315.414 142.458 315.414 317.565S743.144 865.45 569.21 865.45zM773.87 566H588.326V341.836c0-20.63-16.623-37.36-37.11-37.36-20.494 0-37.11 16.73-37.11 37.36V603.36c0 20.635 16.616 37.362 37.11 37.362H773.87c20.51 0 37.116-16.727 37.116-37.36 0-20.63-16.606-37.36-37.115-37.36zM326.03 154.907c18.488-8.923 26.294-31.233 17.437-49.84-8.86-18.604-31.025-26.505-49.503-17.548-106.26 51.243-185.567 141.16-229.31 260.008-7.124 19.356 2.674 40.85 21.883 48.016 4.262 1.59 8.608 2.355 12.906 2.355 15.076 0 29.25-9.325 34.79-24.388 36.928-100.32 103.248-175.916 191.798-218.604z"/></svg>
<svg style="width:308px;height:308px" width="1000" height="1000" viewBox="0 0 1024 1024" id="iconfont-sousuo" y="29973"><path class="svgpath" data-index="path_0" fill="#272636" d="M221.39 221.39c-72.808 72.805-100.25 173.772-82.433 267.775 17.817-80.896 59.7-159.95 125.03-225.28 65.33-65.33 144.384-107.213 225.28-125.03-94.105-17.716-195.072 9.727-267.878 82.534z"/><path class="svgpath" data-index="path_1" fill="#272636" d="M970.342 809.677l-116.838-116.84c-24.27-24.267-57.14-35.224-89.088-32.767 109.875-158.924 94.003-378.572-47.514-520.09-159.334-159.334-417.69-159.334-577.024 0s-159.334 417.69 0 577.025c141.517 141.517 361.063 157.286 520.09 47.41-2.458 31.95 8.5 64.82 32.768 89.09L809.574 970.34c44.237 44.135 116.532 44.135 160.666 0 44.34-44.134 44.34-116.428.102-160.665zM669.492 669.49c-133.12 133.12-348.878 133.12-481.998 0s-133.12-348.876 0-481.996 348.877-133.12 481.997 0c133.12 133.018 133.12 348.877 0 481.997z"/></svg>
<svg style="width:308px;height:308px" width="1000" height="1000" viewBox="0 0 1024 1024" id="iconfont-wudao" y="30973"><path class="svgpath" data-index="path_0" fill="#272636" d="M193.523 346.808s138.483 23.992 252.805-28.09c120.38-54.84 174.353-35.682 192.61-41.464 80.255-25.414 132.422-74.904 176.56-135.094 0 0-50.828 156.497-152.483 185.923 0 0 49.526 15.785 1.336 93.63-17.386 28.09-4.013 89.617 8.027 93.63 12.04 4.014 160.665-14.943 158.068 40.484C827.7 614.39 720.53 732.032 645.625 737.38c0 0 102.01-80.045 106.463-142.376 1.38-19.36-19.17-27.588-74.013-.836-54.842 26.752-58.562 35.686-58.562 35.686S573.396 837.7 470.403 881.84c0 0 94.237-162.51 61.528-271.53l-45.476-20.062s62.224-87.19 66.88-131.084c9.363-88.28-49.49-111.018-49.49-111.018s-135.05 31.59-173.887 33.44c-56.18 2.676-136.434-34.778-136.434-34.778z"/><path class="svgpath" data-index="path_1" fill="#272636" d="M549.92 142.21c-12.74 0-24.302 6.726-32.83 17.654-4.273-9.67-13.123-16.316-23.35-16.316-14.404 0-26.083 13.174-26.083 29.427s11.68 29.427 26.084 29.427c3.11 0 6.092-.616 8.86-1.744-.1 1.68-.166 3.372-.166 5.086 0 35.09 21.26 63.535 47.485 63.535 26.225 0 47.482-28.446 47.482-63.536s-21.257-63.534-47.483-63.534z"/></svg>
<svg style="width:308px;height:308px" width="1000" height="1000" viewBox="0 0 1024 1024" id="iconfont-wuliu" y="31973"><path class="svgpath" data-index="path_0" fill="#272636" d="M951.172 668.882h-18.047c10.47-4.837 17.75-15.33 17.75-27.622h.024V194.753c-.026-16.853-13.688-30.49-30.538-30.514H478.064c-16.875 0-30.537 13.66-30.537 30.513v59.925c-2.69-10.468-12.138-18.296-23.43-18.296h-170.56c-13.333 0-31.008 8.576-39.283 19.044l-98.717 125.288c-8.253 10.52-15.006 30.013-15.006 43.35v208.423h-8.625c-15.505 0-28.07 12.564-28.07 28.068v58.38c0 15.506 12.565 28.07 28.07 28.07h48.584c9.697 2.892 20.765 3.49 28.892.674-1.05 52.82 36.992 99.587 90.636 107.862 58.483 9.024 113.174-31.06 122.197-89.54 1.373-8.825 1.496-17.55.7-26.076 18.893 9.322 51.424 5.833 50.477-9.373-.1-.748-.274-1.496-.373-2.244h164.748c-.176 15.654 31.834 25.474 49.483 19.368-1.047 52.822 37.02 99.588 90.663 107.863 58.48 9.025 113.174-31.06 122.197-89.54 1.372-8.824 1.47-17.55.723-26.075 18.872 9.322 51.4 5.833 50.455-9.373-.1-.748-.273-1.496-.373-2.245h40.257c3.342 0 6.083-2.715 6.083-6.03v-47.31c0-3.344-2.74-6.085-6.083-6.085zM463.58 367.102h241.404v232.38c-31.26 10.246-58.68 29.888-78.15 56.24h-148.77c-8 0-14.484-6.484-14.484-14.46V367.1zm456.783 288.62h-39.037c-24.18-32.708-60.776-56.24-104.224-62.57-2.22-.35-4.414-.4-6.607-.65v-225.4h164.35V641.26c-.024 7.978-6.48 14.46-14.482 14.46zm14.483-460.97v106.742h-164.35v-121.2h149.867c7.976 0 14.458 6.482 14.483 14.46zm-456.782-14.458h226.92v121.2H463.58V194.75c0-7.976 6.484-14.458 14.484-14.458zm-96.47 331.74H343.18c-8.425 0-15.256-.996-15.256-8.325 0-7.306 6.83-18.173 15.257-18.173h38.413c8.4 0 15.232 10.867 15.232 18.172 0 7.328-6.832 8.324-15.232 8.324zm-247.56-90.787c0-10.02.697-12.914 6.955-20.74l93.03-115.59c6.256-7.805 19.57-14.212 29.59-14.212h113.77c10.02 0 18.197 8.202 18.197 18.223v148.87c0 9.996-8.176 18.197-18.197 18.197H149.863c-9.995 0-15.828-5.258-15.828-15.254v-19.493zm203.66 337.873c-5.234 33.904-36.943 57.11-70.82 51.9-33.877-5.233-57.06-36.94-51.85-70.794 5.21-33.876 36.918-57.11 70.797-51.9 33.876 5.235 57.11 36.943 51.875 70.794zm477.896 0c-5.21 33.904-36.918 57.11-70.82 51.9-33.853-5.233-57.087-36.94-51.852-70.794 5.236-33.876 36.945-57.11 70.798-51.9 33.875 5.235 57.084 36.943 51.874 70.794z"/></svg>
<svg style="width:308px;height:308px" width="1000" height="1000" viewBox="0 0 1024 1024" id="iconfont-zuobiao" y="32973"><path class="svgpath" data-index="path_0" fill="#272636" d="M509.283 70.826c-199.178 0-355.847 158.656-355.847 353.634 0 88.382 77.55 215.327 133.764 278.648v.08l.103.645h.382c54.538 63.752 166.755 220.265 168.797 223.08 13.463 16.7 32.094 26.232 52.34 26.26 20.168 0 39.15-9.533 52.93-26.548 82.71-105.54 102.258-136.12 115.312-156.344 9.696-15.016 14.484-22.56 44.45-56.984 15.238-17.563 149.05-174.712 149.05-288.836-.005-194.978-162.11-353.634-361.28-353.634zm.022 436.238c-61.57 0-111.673-49.03-111.673-109.232 0-60.247 50.104-109.26 111.673-109.26 61.523 0 111.602 49.013 111.602 109.26 0 60.202-50.08 109.232-111.602 109.232z"/></svg>
<svg style="width:308px;height:308px" width="1000" height="1000" viewBox="0 0 1024 1024" id="liuyan" y="33973"><path class="svgpath" data-index="path_0" fill="#969696" d="M368.413 501.7c0 28.25-22.936 51.093-51.233 51.093-28.25 0-51.186-22.842-51.186-51.094 0-28.25 22.936-51.186 51.186-51.186 28.297 0 51.233 22.935 51.233 51.185z"/><path class="svgpath" data-index="path_1" fill="#969696" d="M955.006 473.357c0-213.137-199.057-386.555-443.803-386.555-244.743 0-443.8 173.418-443.8 386.555 0 126.615 71.324 245.21 190.945 317.465v121.86c0 8.674 4.755 16.597 12.354 20.606 3.496 1.96 7.18 2.89 11.142 2.89 4.568 0 9.044-1.305 12.96-3.913l56.22-37.11c1.074-.653 2.1-1.492 2.705-2.052l63.586-42.33c31.7 5.967 63.306 9.045 93.982 9.045 244.65-.092 443.708-173.42 443.708-386.46zm-661.6 283.528c-112.164-63.213-179.06-169.223-179.06-283.622 0-187.218 178.034-339.565 396.856-339.565 218.825 0 396.858 152.347 396.858 339.565S729.98 812.827 511.203 812.827c-30.58 0-62.28-3.357-94.167-9.977-6.06-1.397-12.494-.092-17.808 3.452l-74.402 49.6c-1.026.56-2.518 1.865-2.518 1.865l-16.97 11.19v-91.653c0-8.483-4.614-16.224-11.933-20.42z"/><path class="svgpath" data-index="path_2" fill="#969696" d="M570.968 487.34c0 28.252-22.936 51.28-51.28 51.28-28.25 0-51.186-23.028-51.186-51.28s22.936-51.092 51.187-51.092c28.342 0 51.278 22.843 51.278 51.093z"/><path class="svgpath" data-index="path_3" fill="#969696" d="M771.145 487.34c0 28.252-22.937 51.28-51.187 51.28-28.25 0-51.187-23.028-51.187-51.28s22.937-51.092 51.188-51.092c28.25 0 51.187 22.843 51.187 51.093z"/></svg>
<svg style="width:308px;height:308px" width="1000" height="962.406015037594" viewBox="0 0 1064 1024" id="shouye" y="34973"><path class="svgpath" data-index="path_0" fill="#666" d="M12.593 575.693c-.306-17.08 2.658-34.265 8.898-50.428 6.035-15.757 15.135-30.482 27.314-43.167L438.61 75.518c24.035-23.01 54.724-34.57 85.307-34.57s61.265 11.556 85.306 34.57l.407.306 2.965 2.965.306.406 386.123 402.9c12.07 12.578 21.172 27.312 27.21 43.055 6.243 16.165 9.21 33.445 8.9 50.526l-.513 28.538H897.97v286.6c0 26.388-10.434 50.524-27.105 68.122-17.08 17.9-40.704 29.052-66.785 29.052H601.45V717.96H446.288v270.028h-202.63c-26.078 0-49.71-11.15-66.784-29.052-16.672-17.597-27.105-41.73-27.105-68.123v-286.6H13.118l-.512-28.537zm62.7-29.863l-.205.407h132.46V890.73c0 11.15 4.294 21.173 11.043 28.334 6.443 6.747 15.338 11.044 24.958 11.044h144.738v-230.65c0-10.536 4.19-20.143 10.943-27.21 7.06-7.465 16.982-12.07 27.92-12.07h193.416c10.943 0 20.86 4.596 27.922 12.07 6.747 7.06 10.943 16.672 10.943 27.21v230.65h144.74c9.716 0 18.51-4.19 24.956-11.044 6.86-7.158 11.044-17.185 11.044-28.333V546.238h132.46l-.103-.306v-.1c-3.27-8.595-8.29-16.673-15.037-23.73L568.804 116.645c-12.683-11.867-28.742-17.9-44.902-17.9s-32.218 5.93-44.902 17.9l-2.965 2.965L90.323 522.097c-6.747 7.06-11.762 15.134-15.037 23.73z"/><path class="svgpath" data-index="path_1" fill="#666" d="M265.953 530.587c-13.297 0-24.135-10.837-24.135-24.135s10.837-24.135 24.135-24.135H445.97c13.298 0 24.136 10.837 24.136 24.135s-10.837 24.135-24.135 24.135H265.954z"/><path class="svgpath" data-index="path_2" fill="#666" d="M611.26 530.587c-13.296 0-24.134-10.837-24.134-24.135s10.837-24.135 24.135-24.135h180.02c13.296 0 24.134 10.837 24.134 24.135s-10.837 24.135-24.135 24.135H611.26z"/></svg>
<svg style="width:308px;height:308px" width="1000" height="962.406015037594" viewBox="0 0 1064 1024" id="shouye2" y="35936"><path class="svgpath" data-index="path_0" fill="#54c5ff" d="M12.593 575.693c-.306-17.08 2.658-34.265 8.898-50.428 6.035-15.757 15.135-30.482 27.314-43.167L438.61 75.518c24.035-23.01 54.724-34.57 85.307-34.57s61.265 11.556 85.306 34.57l.407.306 2.965 2.965.306.406 386.123 402.9c12.07 12.578 21.172 27.312 27.21 43.055 6.243 16.165 9.21 33.445 8.9 50.526l-.513 28.538H897.97v286.6c0 26.388-10.434 50.524-27.105 68.122-17.08 17.9-40.704 29.052-66.785 29.052H601.45V717.96H446.288v270.028h-202.63c-26.078 0-49.71-11.15-66.784-29.052-16.672-17.597-27.105-41.73-27.105-68.123v-286.6H13.118l-.512-28.537zm62.7-29.863l-.205.407h132.46V890.73c0 11.15 4.294 21.173 11.043 28.334 6.443 6.747 15.338 11.044 24.958 11.044h144.738v-230.65c0-10.536 4.19-20.143 10.943-27.21 7.06-7.465 16.982-12.07 27.92-12.07h193.416c10.943 0 20.86 4.596 27.922 12.07 6.747 7.06 10.943 16.672 10.943 27.21v230.65h144.74c9.716 0 18.51-4.19 24.956-11.044 6.86-7.158 11.044-17.185 11.044-28.333V546.238h132.46l-.103-.306v-.1c-3.27-8.595-8.29-16.673-15.037-23.73L568.804 116.645c-12.683-11.867-28.742-17.9-44.902-17.9s-32.218 5.93-44.902 17.9l-2.965 2.965L90.323 522.097c-6.747 7.06-11.762 15.134-15.037 23.73z"/><path class="svgpath" data-index="path_1" fill="#54c5ff" d="M265.953 530.587c-13.297 0-24.135-10.837-24.135-24.135s10.837-24.135 24.135-24.135H445.97c13.298 0 24.136 10.837 24.136 24.135s-10.837 24.135-24.135 24.135H265.954z"/><path class="svgpath" data-index="path_2" fill="#54c5ff" d="M611.26 530.587c-13.296 0-24.134-10.837-24.134-24.135s10.837-24.135 24.135-24.135h180.02c13.296 0 24.134 10.837 24.134 24.135s-10.837 24.135-24.135 24.135H611.26z"/></svg>
<svg style="width:308px;height:308px" width="1000" height="1000" viewBox="0 0 1024 1024" id="up" y="36899"><path class="svgpath" data-index="path_0" fill="#54c5ff" d="M942.936 747.245c29.315-28.497 29.315-74.74 0-103.307l-378.01-367.236c-29.368-28.483-76.983-28.483-106.292 0L80.637 643.938c-29.367 28.562-29.367 74.806 0 103.307 29.325 28.546 76.93 28.546 106.304 0l324.842-315.6 324.803 315.6c29.367 28.544 76.973 28.543 106.356 0z"/></svg>
<svg style="width:308px;height:308px" width="1000" height="1000" viewBox="0 0 1024 1024" id="wode" y="37899"><path class="svgpath" data-index="path_0" fill="#666" d="M698.736 573.517c52.605-49.874 85.45-120.57 85.45-198.99 0-151.057-121.873-273.533-272.188-273.533-150.33 0-272.184 122.476-272.184 273.534 0 78.42 32.84 149.117 85.443 198.99-153.705 40.185-260.42 128.436-260.42 230.85 0 140.277 200.208 117.227 447.16 117.227 246.957 0 447.165 23.05 447.165-117.228 0-102.414-106.717-190.666-260.426-230.85zM511.998 862.98c-214.75 0-388.835 39.078-388.835-72.14s174.084-201.394 388.835-201.394c-118.112 0-213.858-96.22-213.858-214.918 0-118.697 95.746-214.92 213.858-214.92 118.115 0 213.862 96.223 213.862 214.92 0 118.698-95.747 214.918-213.862 214.918 214.755 0 388.838 90.174 388.838 201.393s-174.083 72.14-388.838 72.14z"/></svg>
<svg style="width:308px;height:308px" width="1000" height="1000" viewBox="0 0 1024 1024" id="wode2" y="38899"><path class="svgpath" data-index="path_0" fill="#54c5ff" d="M698.736 573.517c52.605-49.874 85.45-120.57 85.45-198.99 0-151.057-121.873-273.533-272.188-273.533-150.33 0-272.184 122.476-272.184 273.534 0 78.42 32.84 149.117 85.443 198.99-153.705 40.185-260.42 128.436-260.42 230.85 0 140.277 200.208 117.227 447.16 117.227 246.957 0 447.165 23.05 447.165-117.228 0-102.414-106.717-190.666-260.426-230.85zM511.998 862.98c-214.75 0-388.835 39.078-388.835-72.14s174.084-201.394 388.835-201.394c-118.112 0-213.858-96.22-213.858-214.918 0-118.697 95.746-214.92 213.858-214.92 118.115 0 213.862 96.223 213.862 214.92 0 118.698-95.747 214.918-213.862 214.918 214.755 0 388.838 90.174 388.838 201.393s-174.083 72.14-388.838 72.14z"/></svg>
<svg style="width:308px;height:308px" width="1000" height="1000" viewBox="0 0 1024 1024" id="xiaolaba" y="39899"><path class="svgpath" data-index="path_0" fill="#ff946e" d="M608.012 895.66v-56.352C772.606 803.036 882.332 675.976 882.332 512c0-164.9-113.236-296.288-274.32-327.31v-56.35C793.888 155.544 937.198 316.064 937.198 512s-143.31 356.454-329.186 383.66zm-137.16-54.476L278.828 713.16V310.84l192.024-128.026c30.298 0 54.866 24.566 54.866 54.864v548.64c-.002 30.3-24.568 54.866-54.866 54.866zm-246.89-164.592h-82.294c-30.298 0-54.866-24.564-54.866-54.864V402.27c0-30.298 24.566-54.864 54.866-54.864h82.294v329.186zM772.606 512c0 96.654-71.662 175.844-164.594 189.266v-54.878c62.608-12.71 109.728-68.03 109.728-134.386S670.618 390.326 608.012 377.6v-54.864c92.932 13.42 164.594 92.608 164.594 189.264z"/></svg>
<svg style="width:308px;height:308px" width="1000" height="1000" viewBox="0 0 1024 1024" id="xiaolian" y="40899"><path class="svgpath" data-index="path_0" fill="#ff946e" d="M885.194 765.564h.06v-.383l-.06.384zm-67.782-557.788c-168.4-168.428-442.425-168.428-610.824 0-168.428 168.4-168.428 442.425 0 610.824 168.4 168.43 442.425 168.43 610.824 0 168.428-168.4 168.428-442.425 0-610.824m-43.834 567.02c-144.232 144.234-378.954 144.203-523.17 0-144.25-144.262-144.25-378.94 0-523.2 144.216-144.218 378.938-144.248 523.17 0 144.232 144.216 144.232 378.968 0 523.2M377.25 467.703c25.636 0 46.495-20.864 46.495-46.51 0-25.682-20.86-46.577-46.495-46.577-25.697 0-46.56 20.895-46.56 46.576 0 25.648 20.863 46.512 46.56 46.512m267.848.075c25.667 0 46.556-20.91 46.556-46.56 0-25.678-20.89-46.542-46.556-46.542-25.636 0-46.5 20.864-46.5 46.54 0 25.652 20.864 46.562 46.5 46.562m1.62 156.147l-2.54.827c-41.69 18.875-86.42 28.482-132.822 28.482-47.934 0-93.268-9.702-134.777-28.76l-2.512-.765c-1.56-.425-3.672-1.036-6.303-1.036-15.262 0-27.65 12.39-27.65 27.592 0 7.217 3.393 14.47 8.994 19.914l-.34 1.682 7.066 3.182c49.556 22.424 103.46 34.23 155.86 34.23 53.377 0 105.685-11.503 156.16-34.508 8.868-4.864 14.41-14.193 14.41-24.32 0-17.827-16.122-32.484-35.547-26.518"/></svg>
<svg style="width:308px;height:308px" width="1000" height="1000" viewBox="0 0 1024 1024" id="xiaoxi" y="41899"><path class="svgpath" data-index="path_0" fill="#666" d="M905.124 679.217c15.26-26.134 25.743-55.268 34.013-84.25 19.63-68.702 17.088-155.703 6.108-226.1-13.552-86.898-65.536-168.982-134.76-222.22C696.29 58.817 558.8 67.577 422.76 69.915 235.115 73.15 87.11 228.037 71.37 410.332c-9.273 107.474 5.25 216.926 69.318 306.215 68.84 95.912 182.22 149.543 299.192 149.543h121.764c18.418 0 36.647-.076 55.047-1.28 16.73-1.077 33.43-4.23 49.824-7.45 13.334-2.62 13.63-5.916 12.296-7.707.418.24.914.51 1.515.823C743.27 883.24 806.223 916 869.182 948.76c6.485 3.375 12.8 3.8 18.38 2.266 10.89-1.564 20.344-9.388 19.866-23.518.32-2.684.197-5.39-.434-8.005-2.706-48.147-5.423-96.294-8.135-144.435-1.42-25.232-2.838-50.46-4.262-75.678-.72-12.967 2.135-5.794 10.526-20.173zm-37.33-37.99c-7.3 15.28-25.428 32.65-24.425 50.458 1.26 22.472 2.527 44.962 3.787 67.44 2.342 41.53 4.678 83.056 7.015 124.583-32.236-16.775-64.474-33.55-96.706-50.32-18.59-9.67-37.166-19.34-55.742-29.01-12.556-6.537-21.552-3.183-34.77.6-26.657 7.645-54.632 10.286-82.272 10.286H434.654c-102.184 0-197.215-50.685-256.562-133.387-51.593-71.896-56.73-152.372-56.73-237.267 0-94.5 34.58-178.822 103.78-243.703 62.743-58.83 144.908-80.356 228.75-80.356 60.708 0 124.568-5.3 184.778 4.104 102.746 16.036 187.483 85.557 232.804 177.48 35.696 72.382 36.787 172.108 24.778 251.29-4.625 30.542-15.208 60.06-28.458 87.802z"/><path class="svgpath" data-index="path_1" fill="#666" d="M406.86 466.458c-6.23-51.776-45.045-88.2-98.306-91.07-55.848-3.008-96.253 47.602-99.02 99.07-3.012 55.886 47.572 96.33 99.02 99.096 52.9 2.848 91.935-42.41 98.27-90.94.637-2.446.918-5.162.757-8.156.16-2.933-.11-5.595-.72-8zm-146.527 8c-3.347-62.248 93.114-61.913 96.45 0-3.348 62.238-93.103 62.238-96.45 0z"/><path class="svgpath" data-index="path_2" fill="#666" d="M615.517 466.458c-6.23-51.776-45.045-88.2-98.3-91.072-55.855-3.007-96.26 47.603-99.027 99.07-3.012 55.887 47.572 96.33 99.027 99.097 52.893 2.848 91.928-42.41 98.262-90.94.637-2.445.92-5.162.757-8.156.16-2.932-.11-5.594-.72-8zm-146.528 8c-3.348-62.248 93.113-61.907 96.448 0-3.347 62.226-93.1 62.238-96.45 0z"/><path class="svgpath" data-index="path_3" fill="#666" d="M824.173 466.458c-6.23-51.776-45.045-88.2-98.3-91.07-55.848-3.008-96.253 47.602-99.02 99.07-3.013 55.886 47.565 96.33 99.02 99.096 52.894 2.848 91.928-42.41 98.262-90.94.64-2.445.92-5.162.758-8.156.16-2.933-.11-5.595-.72-8zm-146.52 8c-3.355-62.248 93.106-61.907 96.44 0-3.346 62.226-93.094 62.238-96.44 0z"/></svg>
<svg style="width:308px;height:308px" width="1000" height="1000" viewBox="0 0 1024 1024" id="xiaoxi2" y="42899"><path class="svgpath" data-index="path_0" fill="#54c5ff" d="M905.124 679.217c15.26-26.134 25.743-55.268 34.013-84.25 19.63-68.702 17.088-155.703 6.108-226.1-13.552-86.898-65.536-168.982-134.76-222.22C696.29 58.817 558.8 67.577 422.76 69.915 235.115 73.15 87.11 228.037 71.37 410.332c-9.273 107.474 5.25 216.926 69.318 306.215 68.84 95.912 182.22 149.543 299.192 149.543h121.764c18.418 0 36.647-.076 55.047-1.28 16.73-1.077 33.43-4.23 49.824-7.45 13.334-2.62 13.63-5.916 12.296-7.707.418.24.914.51 1.515.823C743.27 883.24 806.223 916 869.182 948.76c6.485 3.375 12.8 3.8 18.38 2.266 10.89-1.564 20.344-9.388 19.866-23.518.32-2.684.197-5.39-.434-8.005-2.706-48.147-5.423-96.294-8.135-144.435-1.42-25.232-2.838-50.46-4.262-75.678-.72-12.967 2.135-5.794 10.526-20.173zm-37.33-37.99c-7.3 15.28-25.428 32.65-24.425 50.458 1.26 22.472 2.527 44.962 3.787 67.44 2.342 41.53 4.678 83.056 7.015 124.583-32.236-16.775-64.474-33.55-96.706-50.32-18.59-9.67-37.166-19.34-55.742-29.01-12.556-6.537-21.552-3.183-34.77.6-26.657 7.645-54.632 10.286-82.272 10.286H434.654c-102.184 0-197.215-50.685-256.562-133.387-51.593-71.896-56.73-152.372-56.73-237.267 0-94.5 34.58-178.822 103.78-243.703 62.743-58.83 144.908-80.356 228.75-80.356 60.708 0 124.568-5.3 184.778 4.104 102.746 16.036 187.483 85.557 232.804 177.48 35.696 72.382 36.787 172.108 24.778 251.29-4.625 30.542-15.208 60.06-28.458 87.802z"/><path class="svgpath" data-index="path_1" fill="#54c5ff" d="M406.86 466.458c-6.23-51.776-45.045-88.2-98.306-91.07-55.848-3.008-96.253 47.602-99.02 99.07-3.012 55.886 47.572 96.33 99.02 99.096 52.9 2.848 91.935-42.41 98.27-90.94.637-2.446.918-5.162.757-8.156.16-2.933-.11-5.595-.72-8zm-146.527 8c-3.347-62.248 93.114-61.913 96.45 0-3.348 62.238-93.103 62.238-96.45 0z"/><path class="svgpath" data-index="path_2" fill="#54c5ff" d="M615.517 466.458c-6.23-51.776-45.045-88.2-98.3-91.072-55.855-3.007-96.26 47.603-99.027 99.07-3.012 55.887 47.572 96.33 99.027 99.097 52.893 2.848 91.928-42.41 98.262-90.94.637-2.445.92-5.162.757-8.156.16-2.932-.11-5.594-.72-8zm-146.528 8c-3.348-62.248 93.113-61.907 96.448 0-3.347 62.226-93.1 62.238-96.45 0z"/><path class="svgpath" data-index="path_3" fill="#54c5ff" d="M824.173 466.458c-6.23-51.776-45.045-88.2-98.3-91.07-55.848-3.008-96.253 47.602-99.02 99.07-3.013 55.886 47.565 96.33 99.02 99.096 52.894 2.848 91.928-42.41 98.262-90.94.64-2.445.92-5.162.758-8.156.16-2.933-.11-5.595-.72-8zm-146.52 8c-3.355-62.248 93.106-61.907 96.44 0-3.346 62.226-93.094 62.238-96.44 0z"/></svg>
<svg style="width:308px;height:308px" width="1000" height="1000" viewBox="0 0 1024 1024" id="xingbienan" y="43899"><path class="svgpath" data-index="path_0" fill="#848484" d="M920.296 72.83l1.026-9.21c0-5.116-1.026-10.232-4.103-13.302-4.104-4.093-9.234-6.14-14.363-6.14H658.7c-10.26 0-18.466 9.21-19.493 19.443v13.304c2.052 11.256 11.285 18.42 21.544 18.42h172.347L627.923 297.957c-55.396-46.05-127.208-74.7-205.174-74.7-176.45 0-320.072 143.262-320.072 319.27 0 177.032 143.622 320.295 320.07 320.295s320.073-143.263 320.073-319.27c0-79.82-29.75-152.474-77.965-208.756L870.03 131.16l-1.027 174.985c0 10.233 8.207 19.442 18.465 19.442h13.337c10.26 0 18.466-6.14 19.492-16.373V72.83zm-228.77 470.722c0 148.38-121.052 268.106-268.778 268.106-148.75 0-268.778-119.727-268.778-268.106s121.053-268.107 268.778-268.107c148.752 0 268.78 119.727 268.78 268.107z"/></svg>
<svg style="width:308px;height:308px" width="1000" height="1000" viewBox="0 0 1024 1024" id="xingbienan2" y="44899"><path class="svgpath" data-index="path_0" fill="#eb4f38" d="M920.296 72.83l1.026-9.21c0-5.116-1.026-10.232-4.103-13.302-4.104-4.093-9.234-6.14-14.363-6.14H658.7c-10.26 0-18.466 9.21-19.493 19.443v13.304c2.052 11.256 11.285 18.42 21.544 18.42h172.347L627.923 297.957c-55.396-46.05-127.208-74.7-205.174-74.7-176.45 0-320.072 143.262-320.072 319.27 0 177.032 143.622 320.295 320.07 320.295s320.073-143.263 320.073-319.27c0-79.82-29.75-152.474-77.965-208.756L870.03 131.16l-1.027 174.985c0 10.233 8.207 19.442 18.465 19.442h13.337c10.26 0 18.466-6.14 19.492-16.373V72.83zm-228.77 470.722c0 148.38-121.052 268.106-268.778 268.106-148.75 0-268.778-119.727-268.778-268.106s121.053-268.107 268.778-268.107c148.752 0 268.78 119.727 268.78 268.107z"/></svg>
<svg style="width:308px;height:308px" width="1000" height="1000" viewBox="0 0 1024 1024" id="xingbienan3" y="45899"><path class="svgpath" data-index="path_0" fill="#b2b2b2" d="M453.334 453.346c-88.292 0-160.168 71.617-160 159.984.125 88.45 72.5 160.36 160 159.986 88.25-.333 160-71.62 160-159.986 0-88.368-71.75-159.984-160-159.984zM938.666 0H85.334C38.165 0 0 38.188 0 85.332v853.336C0 985.752 38.166 1024 85.334 1024h853.332c47.126 0 85.334-38.248 85.334-85.332V85.332C1024 38.188 985.793 0 938.666 0zm-85.332 493.363l-80-119.99-120 119.99c20.08 35.454 40 76.263 40 119.967 0 134.614-105.584 239.978-240 239.978-134.458 0-240-105.365-240-239.978 0-134.633 105.542-239.956 240-239.956 46.417 0 83.082 17.395 120 39.975l120-119.97-120-80.013 280.375-.04-.376 280.036z"/></svg>
<svg style="width:308px;height:308px" width="1000" height="1000" viewBox="0 0 1024 1024" id="xingbienan4" y="46899"><path class="svgpath" data-index="path_0" fill="#ff946e" d="M453.334 453.346c-88.292 0-160.168 71.617-160 159.984.125 88.45 72.5 160.36 160 159.986 88.25-.333 160-71.62 160-159.986 0-88.368-71.75-159.984-160-159.984zM938.666 0H85.334C38.165 0 0 38.188 0 85.332v853.336C0 985.752 38.166 1024 85.334 1024h853.332c47.126 0 85.334-38.248 85.334-85.332V85.332C1024 38.188 985.793 0 938.666 0zm-85.332 493.363l-80-119.99-120 119.99c20.08 35.454 40 76.263 40 119.967 0 134.614-105.584 239.978-240 239.978-134.458 0-240-105.365-240-239.978 0-134.633 105.542-239.956 240-239.956 46.417 0 83.082 17.395 120 39.975l120-119.97-120-80.013 280.375-.04-.376 280.036z"/></svg>
<svg style="width:308px;height:308px" width="1000" height="1000" viewBox="0 0 1024 1024" id="xingbienv" y="47899"><path class="svgpath" data-index="path_0" fill="#848484" d="M600.827 44.178c-176.12 0-319.47 143.174-319.47 319.072 0 78.746 28.67 150.332 75.77 206.58l-101.37 102.266L147.22 563.693c-10.24-10.227-26.623-10.227-35.84 0-10.238 10.227-10.238 26.59 0 35.794l107.515 109.425-108.538 109.425c-10.24 10.227-10.24 26.59 0 35.793 10.24 10.227 26.623 10.227 35.84 0l108.537-109.425 109.562 110.448c10.24 10.227 26.622 10.227 35.838 0 10.24-10.226 10.24-26.59 0-35.793l-108.54-110.448 101.372-102.267c56.317 48.065 129.017 76.7 207.86 76.7 177.144 0 320.496-143.174 320.496-320.095 0-175.898-143.352-319.072-320.495-319.072zm0 588.034c-148.472 0-269.297-120.675-269.297-268.962 0-148.286 120.826-267.938 269.297-267.938S870.124 214.964 870.124 363.25c0 149.31-120.824 268.962-269.297 268.962z"/></svg>
<svg style="width:308px;height:308px" width="1000" height="1000" viewBox="0 0 1024 1024" id="xingbienv2" y="48899"><path class="svgpath" data-index="path_0" fill="#eb4f38" d="M600.827 44.178c-176.12 0-319.47 143.174-319.47 319.072 0 78.746 28.67 150.332 75.77 206.58l-101.37 102.266L147.22 563.693c-10.24-10.227-26.623-10.227-35.84 0-10.238 10.227-10.238 26.59 0 35.794l107.515 109.425-108.538 109.425c-10.24 10.227-10.24 26.59 0 35.793 10.24 10.227 26.623 10.227 35.84 0l108.537-109.425 109.562 110.448c10.24 10.227 26.622 10.227 35.838 0 10.24-10.226 10.24-26.59 0-35.793l-108.54-110.448 101.372-102.267c56.317 48.065 129.017 76.7 207.86 76.7 177.144 0 320.496-143.174 320.496-320.095 0-175.898-143.352-319.072-320.495-319.072zm0 588.034c-148.472 0-269.297-120.675-269.297-268.962 0-148.286 120.826-267.938 269.297-267.938S870.124 214.964 870.124 363.25c0 149.31-120.824 268.962-269.297 268.962z"/></svg>
<svg style="width:308px;height:308px" width="1000" height="1000" viewBox="0 0 1024 1024" id="xingbienv3" y="49899"><path class="svgpath" data-index="path_0" fill="#b2b2b2" d="M614.07 251.342c-88.845 0-160.872 71.987-160.872 160.87 0 88.846 72.027 160.872 160.87 160.872s160.87-72.026 160.87-160.87c0-88.886-72.025-160.872-160.87-160.872zM938.665 0H85.334C38.166 0 0 38.168 0 85.334v853.333C0 985.75 38.166 1024 85.334 1024h853.332c47.125 0 85.334-38.25 85.334-85.333V85.334C1024 38.168 985.793 0 938.666 0zM614.07 653.496c-46.027 0-89.04-12.883-125.634-35.232l-75.466 75.462 80.457 80.456-80.457 80.413-80.415-80.413-80.455 80.413-80.415-80.413 80.415-80.456-80.415-80.453 80.415-80.418 80.455 80.418 75.433-75.436c-22.357-36.59-35.246-79.597-35.246-125.624 0-133.286 108.042-241.285 241.328-241.285 133.288 0 241.326 108 241.326 241.285 0 133.287-108.04 241.283-241.327 241.283z"/></svg>
<svg style="width:308px;height:308px" width="1000" height="1000" viewBox="0 0 1024 1024" id="xingbienv4" y="50899"><path class="svgpath" data-index="path_0" fill="#ff946e" d="M614.07 251.342c-88.845 0-160.872 71.987-160.872 160.87 0 88.846 72.027 160.872 160.87 160.872s160.87-72.026 160.87-160.87c0-88.886-72.025-160.872-160.87-160.872zM938.665 0H85.334C38.166 0 0 38.168 0 85.334v853.333C0 985.75 38.166 1024 85.334 1024h853.332c47.125 0 85.334-38.25 85.334-85.333V85.334C1024 38.168 985.793 0 938.666 0zM614.07 653.496c-46.027 0-89.04-12.883-125.634-35.232l-75.466 75.462 80.457 80.456-80.457 80.413-80.415-80.413-80.455 80.413-80.415-80.413 80.415-80.456-80.415-80.453 80.415-80.418 80.455 80.418 75.433-75.436c-22.357-36.59-35.246-79.597-35.246-125.624 0-133.286 108.042-241.285 241.328-241.285 133.288 0 241.326 108 241.326 241.285 0 133.287-108.04 241.283-241.327 241.283z"/></svg>
<svg style="width:308px;height:308px" width="1000" height="1000" viewBox="0 0 1024 1024" id="xuan" y="51899"><path class="svgpath" data-index="path_0" fill="#b2b2b2" d="M509.533 64.076c-246.81 0-447.59 200.78-447.59 447.592 0 246.817 200.78 447.598 447.59 447.598 246.82 0 447.6-200.78 447.6-447.598 0-246.81-200.78-447.592-447.6-447.592zm0 865.754C278.96 929.83 91.38 742.213 91.38 511.67c0-230.576 187.58-418.156 418.153-418.156 230.545 0 418.163 187.58 418.163 418.155 0 230.543-187.618 418.16-418.163 418.16z"/><path class="svgpath" data-index="path_1" fill="#b2b2b2" d="M509.534 228.59c-156.092 0-283.078 126.987-283.078 283.08 0 156.07 126.986 283.083 283.078 283.083 156.073 0 283.086-127.012 283.086-283.084 0-156.093-127.014-283.08-283.086-283.08z"/></svg>
<svg style="width:308px;height:308px" width="1000" height="1000" viewBox="0 0 1024 1024" id="xuan2" y="52899"><path class="svgpath" data-index="path_0" fill="#11cd6e" d="M509.533 64.076c-246.81 0-447.59 200.78-447.59 447.592 0 246.817 200.78 447.598 447.59 447.598 246.82 0 447.6-200.78 447.6-447.598 0-246.81-200.78-447.592-447.6-447.592zm0 865.754C278.96 929.83 91.38 742.213 91.38 511.67c0-230.576 187.58-418.156 418.153-418.156 230.545 0 418.163 187.58 418.163 418.155 0 230.543-187.618 418.16-418.163 418.16z"/><path class="svgpath" data-index="path_1" fill="#11cd6e" d="M509.534 228.59c-156.092 0-283.078 126.987-283.078 283.08 0 156.07 126.986 283.083 283.078 283.083 156.073 0 283.086-127.012 283.086-283.084 0-156.093-127.014-283.08-283.086-283.08z"/></svg>
<svg style="width:308px;height:308px" width="1000" height="1000" viewBox="0 0 1024 1024" id="xuanzhong" y="53899"><path class="svgpath" data-index="path_0" fill="#11cd6e" d="M306.055 479.62l121.77 227.903s197.9-463.137 510.014-617.515c-7.588 110.265-38.03 205.823 15.22 323.413-137.042 29.41-418.66 360.253-510.012 521.956C313.665 780.998 161.43 663.356 54.856 626.62l251.2-147z"/></svg>
<svg style="width:308px;height:308px" width="1000" height="1000" viewBox="0 0 1024 1024" id="yanjing" y="54899"><path class="svgpath" data-index="path_0" fill="#969696" d="M511.466 269.57c169.452 0 315.308 99.39 383.565 242.838h66.515c-72.09-177.91-246.293-303.526-450.08-303.526-203.754 0-377.957 125.617-450.046 303.526h66.514c68.255-143.45 214.11-242.84 383.532-242.84z"/><path class="svgpath" data-index="path_1" fill="#969696" d="M511.466 755.248c-169.42 0-315.277-99.39-383.532-242.84H61.42c72.087 177.94 246.29 303.558 450.046 303.558 203.786 0 377.99-125.617 450.08-303.558H895.03c-68.256 143.45-214.11 242.84-383.564 242.84z"/><path class="svgpath" data-index="path_2" fill="#969696" d="M349.594 512.424c0 89.412 72.474 161.886 161.885 161.886 89.413 0 161.885-72.474 161.885-161.886 0-89.414-72.472-161.886-161.886-161.886-89.413 0-161.886 72.472-161.886 161.886zm263.084 0c0 55.88-45.32 101.197-101.2 101.197s-101.165-45.317-101.165-101.196c0-55.88 45.287-101.2 101.166-101.2s101.198 45.32 101.198 101.2z"/></svg>
<svg style="width:308px;height:308px" width="1000" height="1000" viewBox="0 0 1024 1024" id="yixuan" y="55899"><path class="svgpath" data-index="path_0" fill="#11cd6e" d="M517.176 127.898c-220.91 0-400 179.083-400 399.995s179.09 400.005 400 400.005c220.92 0 400-179.093 400-400.005s-179.08-399.995-400-399.995zm240.762 282.585L476.783 689.077c-6.1 6.045-14.086 9.076-22.082 9.076-7.993 0-15.99-3.03-22.09-9.076L276.41 534.307c-12.2-12.088-12.2-31.678 0-43.766 12.203-12.097 31.973-12.097 44.176 0L454.7 623.436l259.072-256.72c12.203-12.097 31.962-12.097 44.165 0 12.204 12.09 12.204 31.678 0 43.768z"/></svg>
<svg style="width:308px;height:308px" width="1000" height="1000" viewBox="0 0 1024 1024" id="yixuan2" y="56899"><path class="svgpath" data-index="path_0" fill="#b2b2b2" d="M509.533 64.076c-246.81 0-447.59 200.78-447.59 447.592 0 246.817 200.78 447.598 447.59 447.598 246.82 0 447.6-200.78 447.6-447.598 0-246.81-200.78-447.592-447.6-447.592zm0 865.754C278.96 929.83 91.38 742.213 91.38 511.67c0-230.576 187.58-418.156 418.153-418.156 230.545 0 418.163 187.58 418.163 418.155 0 230.543-187.618 418.16-418.163 418.16z"/></svg>
</svg>