<?xml version="1.0" encoding="utf-8"?>
<!DOCTYPE svg PUBLIC "-//W3C//DTD SVG 1.1//EN" "http://www.w3.org/Graphics/SVG/1.1/DTD/svg11.dtd">
<svg style="width:308px;height:308px;" version="1.1" id="图形" xmlns="http://www.w3.org/2000/svg" xmlns:xlink="http://www.w3.org/1999/xlink" x="0px" y="0px" width="1024px" height="1024px" viewBox="0 0 1024 1024" enable-background="new 0 0 1024 1024" xml:space="preserve">
  <path class="svgpath" data-index="path_0" fill="#11cd6e" d="M522.472004 36.022425c-263.072581 0-476.335732 213.265198-476.335732 476.341872 0 263.054161 213.263152 476.320383 476.335732 476.320383 263.074627 0 476.320383-213.265198 476.320383-476.320383C998.792387 249.287623 785.546631 36.022425 522.472004 36.022425zM707.826526 731.36615c-33.570583 33.587979-158.74856 1.750877-282.425348-121.911584C301.725414 485.755266 269.942547 360.597755 303.474244 327.028195c29.135574-29.096688 64.611553-79.957053 117.78459-13.751189 53.211922 66.226331 27.03268 84.723613-2.956332 114.753557-21.024849 20.98494 22.793122 74.064856 68.615751 119.887484 45.861514 45.803185 98.900497 89.585341 119.925347 68.658729 30.029944-30.03199 48.544623-56.19179 114.733091-2.976798C787.763113 666.832368 736.942657 702.267415 707.826526 731.36615z" />

</svg>
