<?xml version="1.0" encoding="utf-8"?>
<!DOCTYPE svg PUBLIC "-//W3C//DTD SVG 1.1//EN" "http://www.w3.org/Graphics/SVG/1.1/DTD/svg11.dtd">
<svg style="width:308px;height:308px;" version="1.1" id="图形" xmlns="http://www.w3.org/2000/svg" xmlns:xlink="http://www.w3.org/1999/xlink" x="0px" y="0px" width="1024px" height="1024px" viewBox="0 0 1024 1024" enable-background="new 0 0 1024 1024" xml:space="preserve">
  <path class="svgpath" data-index="path_0" fill="#272636" d="M778.359952 246.792802l-14.665001 0 0-32.745798c0-56.425104-45.904493-102.33062-102.33062-102.33062s-102.33062 45.905516-102.33062 102.33062l0 32.745798-96.835466 0 0-32.745798c0-56.425104-45.905516-102.33062-102.33062-102.33062s-102.33062 45.905516-102.33062 102.33062l0 32.745798-10.19213 0c-64.911382 0-117.721145 52.80874-117.721145 117.721145L129.623731 775.802198c0 64.911382 52.80874 117.720122 117.721145 117.720122l531.015076 0c64.911382 0 117.720122-52.80874 117.720122-117.720122L896.080074 364.513948C896.080074 299.602565 843.270311 246.792802 778.359952 246.792802zM620.432083 214.047004c0-22.570042 18.362206-40.932248 40.932248-40.932248s40.932248 18.362206 40.932248 40.932248l0 32.745798-81.864496 0L620.432083 214.047004zM701.001073 308.191174c-4.555759 17.634636-20.600177 30.699186-39.636742 30.699186s-35.080983-13.06455-39.636742-30.699186L701.001073 308.191174zM318.935378 214.047004c0-22.570042 18.362206-40.932248 40.932248-40.932248s40.932248 18.362206 40.932248 40.932248l0 32.745798-81.864496 0L318.935378 214.047004zM399.504368 308.191174c-4.555759 17.634636-20.599154 30.699186-39.636742 30.699186s-35.080983-13.06455-39.636742-30.699186L399.504368 308.191174zM247.343853 308.191174l10.70276 0c5.151323 51.638077 48.848545 92.097558 101.81999 92.097558s96.66969-40.45948 101.81999-92.097558l97.855702 0c5.1503 51.638077 48.847521 92.097558 101.81999 92.097558s96.66969-40.45948 101.81999-92.097558l15.175631 0c31.05632 0 56.32175 25.26543 56.32175 56.322773l0 100.243075-643.659599 0 0-100.243075C191.022103 333.457628 216.287533 308.191174 247.343853 308.191174zM778.359952 832.123948 247.343853 832.123948c-31.05632 0-56.322773-25.26543-56.322773-56.32175L191.02108 495.456209l643.659599 0L834.680678 775.802198C834.681702 806.858518 809.415248 832.123948 778.359952 832.123948z" />

</svg>
