<?xml version="1.0" encoding="utf-8"?>
<!DOCTYPE svg PUBLIC "-//W3C//DTD SVG 1.1//EN" "http://www.w3.org/Graphics/SVG/1.1/DTD/svg11.dtd">
<svg style="width:308px;height:308px;" version="1.1" id="图形" xmlns="http://www.w3.org/2000/svg" xmlns:xlink="http://www.w3.org/1999/xlink" x="0px" y="0px" width="1024px" height="1024px" viewBox="0 0 1024 1024" enable-background="new 0 0 1024 1024" xml:space="preserve">
  <path class="svgpath" data-index="path_0" fill="#272636" d="M221.3888 221.3888c-72.8064 72.8064-100.2496 173.7728-82.432 267.776 17.8176-80.896 59.6992-159.9488 125.0304-225.28 65.3312-65.3312 144.384-107.2128 225.28-125.0304C395.1616 121.1392 294.1952 148.5824 221.3888 221.3888z" />
<path class="svgpath" data-index="path_1" fill="#272636" d="M970.3424 809.6768 853.504 692.8384c-24.2688-24.2688-57.1392-35.2256-89.088-32.768 109.8752-158.9248 94.0032-378.5728-47.5136-520.0896-159.3344-159.3344-417.6896-159.3344-577.024 0s-159.3344 417.6896 0 577.024c141.5168 141.5168 361.0624 157.2864 520.0896 47.4112-2.4576 31.9488 8.4992 64.8192 32.768 89.088l116.8384 116.8384c44.2368 44.1344 116.5312 44.1344 160.6656 0l0 0C1014.5792 926.208 1014.5792 853.9136 970.3424 809.6768zM669.4912 669.4912c-133.12 133.12-348.8768 133.12-481.9968 0-133.12-133.12-133.12-348.8768 0-481.9968 133.12-133.12 348.8768-133.12 481.9968 0C802.6112 320.512 802.6112 536.3712 669.4912 669.4912z" />

</svg>
