<?xml version="1.0" encoding="utf-8"?>
<!DOCTYPE svg PUBLIC "-//W3C//DTD SVG 1.1//EN" "http://www.w3.org/Graphics/SVG/1.1/DTD/svg11.dtd">
<svg style="width:308px;height:308px;" version="1.1" id="图形" xmlns="http://www.w3.org/2000/svg" xmlns:xlink="http://www.w3.org/1999/xlink" x="0px" y="0px" width="1024px" height="1024px" viewBox="0 0 1024 1024" enable-background="new 0 0 1024 1024" xml:space="preserve">
  <path class="svgpath" data-index="path_0" fill="#272636" d="M285.319769 222.664266c0 0-74.398454 56.487525-97.351212 118.990045-23.00597 62.60792-34.015721 99.92585-36.779671 127.114073-2.76395 27.244504-31.199583 29.247114-43.146683 19.173688-11.9471-10.07445-17.47807-65.589834 18.36323-146.287761 35.8413-80.69895 123.072013-167.463036 130.429585-170.495092 7.30436-2.980891-4.641717-19.11843 18.36323-40.295751C298.155099 109.632933 400.986115 55.200206 533.241278 65.327868c132.252093 10.075473 167.20414 30.221302 198.403722 52.372811 31.202653 22.261003 29.426193 52.482305 29.426193 52.482305s60.523445 31.738865 112.850208 127.547954c52.429093 95.863325 56.971549 144.770198 57.218166 159.610184 0.24457 14.947434-6.862291 26.267247-21.082154 28.813233-14.316054 2.491751-26.458605 10.07445-36.332487-28.27088s-10.072403-76.151377-33.07735-113.737414c-22.904663-37.58706-87.921445-112.003933-97.993848-116.498294-10.07138-4.602831-7.353478 4.00829-27.100218 6.012947-19.74674 2.00261-76.718289-50.370201-164.887374-53.403281-88.170109-3.03308-163.404604 23.177885-195.590654 39.374776C322.935482 235.771795 285.319769 222.664266 285.319769 222.664266L285.319769 222.664266zM732.683656 825.034483c-16.935718 11.751648-41.61684 27.241434-68.570725 39.158858-18.908652 8.338922-37.027311 14.297634-52.03512 18.521842-1.873674-10.562567-8.785084-18.466584-16.881482-18.466584L418.610518 864.248599c-9.529027 0-17.328667 10.775414-17.328667 24.044626l0 48.149627c0 13.213953 7.800663 24.047696 17.328667 24.047696l176.586834 0c9.576099 0 17.375739-10.833743 17.375739-24.047696l0-4.710278c24.780383-7.909134 89.89745-29.789467 121.786741-51.888787 14.661931-10.126638 25.326828-19.659759 32.980135-27.730575l46.454008 0c14.909571 0 27.15036-13.374612 27.15036-29.732162L840.944336 519.679913c0-16.303314-12.240789-29.68202-27.15036-29.68202l-54.107315 0c-14.957667 0-27.103288 13.379729-27.103288 29.68202l0 302.70216L732.683656 825.034483 732.683656 825.034483zM895.001509 517.189186l-25.621541 0 0 288.511973 25.621541 0c36.433794 0 66.249867-38.942941 66.249867-86.494956l0-115.469871C961.251376 556.129056 931.436326 517.189186 895.001509 517.189186L895.001509 517.189186zM124.628974 528.779152l24.089651 0 0 288.511973-24.089651 0c-34.211173 0-62.251809-38.941917-62.251809-86.547145L62.377164 615.273085C62.377164 567.719023 90.417801 528.779152 124.628974 528.779152L124.628974 528.779152zM130.355395 551.415708c0 0-21.12718 2.00568-39.09746 16.683984-17.872043 14.622022-16.488533 35.255968-16.488533 35.255968l0 124.570133 31.641651 0c0 0-2.320858-107.888196 0-123.541711 2.321882-15.651468 23.943318-15.164375 23.943318-15.164375L130.354372 551.415708 130.355395 551.415708zM219.610208 489.997893c-14.909571 0-27.101241 13.379729-27.101241 29.68202l0 302.70216c0 16.356526 12.19167 29.732162 27.101241 29.732162l54.204529 0c14.909571 0 27.055193-13.374612 27.055193-29.732162L300.86993 519.679913c0-16.303314-12.145621-29.68202-27.055193-29.68202L219.610208 489.997893z" />

</svg>
