<?xml version="1.0" encoding="utf-8"?>
<!DOCTYPE svg PUBLIC "-//W3C//DTD SVG 1.1//EN" "http://www.w3.org/Graphics/SVG/1.1/DTD/svg11.dtd">
<svg style="width:308px;height:308px;" version="1.1" id="图形" xmlns="http://www.w3.org/2000/svg" xmlns:xlink="http://www.w3.org/1999/xlink" x="0px" y="0px" width="1024px" height="1024px" viewBox="0 0 1024 1024" enable-background="new 0 0 1024 1024" xml:space="preserve">
  <path class="svgpath" data-index="path_0" fill="#666666" d="M905.123542 679.217443c15.260565-26.134217 25.743314-55.268768 34.013675-84.251869 19.629059-68.700685 17.08819-155.701155 6.108115-226.097458-13.552667-86.899162-65.536622-168.982646-134.76124-222.221174C696.291306 58.815547 558.800909 67.577095 422.760536 69.915349 235.113809 73.148997 87.10894 228.036623 71.369468 410.332483c-9.272177 107.473757 5.250584 216.925564 69.318762 306.214147 68.839855 95.912443 182.219111 149.542898 299.19222 149.542898 40.587394 0 81.181951 0 121.763205 0 18.418488 0 36.647665-0.075725 55.047734-1.279133 16.72901-1.077541 33.42732-4.229325 49.822732-7.450692 13.33368-2.618641 13.630439-5.915733 12.296047-7.706519 0.417509 0.23843 0.913812 0.51063 1.514493 0.822738 62.945611 32.765241 125.898385 65.524342 188.857299 98.283444 6.484691 3.375887 12.800537 3.801583 18.378579 2.266623 10.891048-1.563612 20.345374-9.387811 19.86749-23.517623 0.319272-2.684132 0.196475-5.390777-0.433882-8.005324-2.706645-48.146557-5.423523-96.294137-8.135284-144.434553-1.418302-25.232684-2.836605-50.459229-4.261047-75.67861C893.87843 686.422542 896.733455 693.595918 905.123542 679.217443zM867.794355 641.226177c-7.299243 15.280008-25.428136 32.651654-24.425296 50.459229 1.260713 22.471804 2.527566 44.962028 3.78828 67.439972 2.341325 41.528835 4.677533 83.055624 7.014764 124.582413-32.236192-16.775059-64.47443-33.550117-96.706529-50.321082-18.588357-9.66922-37.165458-19.338441-55.741535-29.008684-12.555967-6.53688-21.551852-3.183506-34.769898 0.598634-26.657126 7.646144-54.632271 10.287297-82.271772 10.287297-50.011021 0-100.023064 0-150.027945 0-102.184287 0-197.215664-50.685379-256.562307-133.38694-51.593052-71.89647-56.731072-152.37234-56.731072-237.266845 0-94.501304 34.580586-178.821735 103.779621-243.703441 62.74402-58.829873 144.909367-80.356143 228.750891-80.356143 60.708664 0 124.568087-5.300726 184.7784 4.103458 102.746082 16.036231 187.482999 85.556585 232.804207 177.479157 35.69599 72.382541 36.786835 172.108846 24.778336 251.29228C891.627157 583.966055 881.044124 613.485369 867.794355 641.226177z" />
<path class="svgpath" data-index="path_1" fill="#666666" d="M406.860405 466.457758c-6.229888-51.776224-45.044916-88.198761-98.305957-91.071182-55.847959-3.006474-96.253204 47.603181-99.020224 99.07139-3.012613 55.885821 47.571459 96.328929 99.020224 99.095949 52.899814 2.847861 91.934852-42.409902 98.268094-90.941222 0.638543-2.444679 0.919952-5.160533 0.75827-8.154727C407.739425 471.52517 407.471318 468.862527 406.860405 466.457758zM260.33319 474.456942c-3.347235-62.246693 93.113701-61.912072 96.448656 0C353.434611 536.696472 263.680425 536.696472 260.33319 474.456942z" />
<path class="svgpath" data-index="path_2" fill="#666666" d="M615.516632 466.457758c-6.229888-51.776224-45.044916-88.198761-98.299817-91.072205-55.855122-3.006474-96.259344 47.603181-99.026364 99.07139-3.012613 55.885821 47.571459 96.328929 99.026364 99.095949 52.893674 2.847861 91.927689-42.409902 98.261954-90.940199 0.638543-2.444679 0.919952-5.161556 0.75827-8.15575C616.395652 471.52517 616.126522 468.862527 615.516632 466.457758zM468.989417 474.456942c-3.347235-62.246693 93.113701-61.905932 96.448656 0C562.090838 536.684192 472.336652 536.696472 468.989417 474.456942z" />
<path class="svgpath" data-index="path_3" fill="#666666" d="M824.172859 466.457758c-6.229888-51.776224-45.044916-88.198761-98.299817-91.071182-55.847959-3.006474-96.253204 47.603181-99.020224 99.07139-3.012613 55.885821 47.565319 96.328929 99.020224 99.095949 52.893674 2.847861 91.927689-42.409902 98.261954-90.940199 0.638543-2.444679 0.919952-5.161556 0.75827-8.15575C825.051879 471.52517 824.782749 468.862527 824.172859 466.457758zM677.651784 474.456942c-3.353374-62.246693 93.107561-61.905932 96.442516 0C770.747065 536.684192 680.999019 536.696472 677.651784 474.456942z" />

</svg>
