<?xml version="1.0" encoding="utf-8"?>
<!DOCTYPE svg PUBLIC "-//W3C//DTD SVG 1.1//EN" "http://www.w3.org/Graphics/SVG/1.1/DTD/svg11.dtd">
<svg style="width:308px;height:308px;" version="1.1" id="图形" xmlns="http://www.w3.org/2000/svg" xmlns:xlink="http://www.w3.org/1999/xlink" x="0px" y="0px" width="1024px" height="1024px" viewBox="0 0 1024 1024" enable-background="new 0 0 1024 1024" xml:space="preserve">
  <path class="svgpath" data-index="path_0" fill="#ff946e" d="M453.334 453.3463c-88.2924 0-160.1679 71.6165-160.001 159.9836 0.126 88.45 72.5002 160.3604 160.001 159.9857 88.2493-0.3328 159.999-71.6186 159.999-159.9857C613.333 524.9618 541.5834 453.3463 453.334 453.3463zM938.666 0H85.334016C38.1655 0 0 38.188 0 85.332v853.3360640000001C0 985.7516 38.1655 1024 85.334 1024h853.331968c47.1265 0 85.334-38.2484 85.334-85.332V85.33196799999999C1024 38.188 985.7925 0 938.666 0zM853.334 493.3632 773.335 373.374 653.3335 493.3632c20.0817 35.454 39.9995 76.2624 39.9995 119.9667 0 134.614-105.5826 239.9785-239.999 239.9785-134.4584 0-240.001-105.3655-240.001-239.9785 0-134.6324 105.5427-239.956 240.001-239.956 46.4169 0 83.0822 17.3947 120.0005 39.9749l119.9985-119.9677-119.9985-80.0143 280.3743-0.041L853.334 493.3632z" />

</svg>
