<?xml version="1.0" encoding="utf-8"?>
<!DOCTYPE svg PUBLIC "-//W3C//DTD SVG 1.1//EN" "http://www.w3.org/Graphics/SVG/1.1/DTD/svg11.dtd">
<svg style="width:308px;height:308px;" version="1.1" id="图形" xmlns="http://www.w3.org/2000/svg" xmlns:xlink="http://www.w3.org/1999/xlink" x="0px" y="0px" width="1024px" height="1024px" viewBox="0 0 1024 1024" enable-background="new 0 0 1024 1024" xml:space="preserve">
  <path class="svgpath" data-index="path_0" fill="#b2b2b2" d="M885.193697 765.564121l0.060768 0 0-0.382707L885.193697 765.564121zM817.411879 207.776323c-168.398869-168.428606-442.424889-168.428606-610.823758 0-168.428606 168.398869-168.428606 442.424889 0 610.823758 168.398869 168.429899 442.424889 168.429899 610.823758 0C985.840485 650.201212 985.840485 376.175192 817.411879 207.776323M773.577697 774.796929c-144.231434 144.232727-378.953697 144.201697-523.170909 0-144.248242-144.262465-144.248242-378.939475 0-523.201939 144.217212-144.217212 378.939475-144.246949 523.170909 0C917.810424 395.812202 917.810424 630.564202 773.577697 774.796929M377.249616 467.701657c25.636202 0 46.49503-20.864 46.49503-46.510545 0-25.681455-20.858828-46.576485-46.49503-46.576485-25.69697 0-46.559677 20.89503-46.559677 46.576485C330.689939 446.837657 351.552646 467.701657 377.249616 467.701657M645.09802 467.776646c25.667232 0 46.555798-20.909253 46.555798-46.56097 0-25.676283-20.888566-46.540283-46.555798-46.540283-25.636202 0-46.500202 20.864-46.500202 46.540283C598.597818 446.867394 619.461818 467.776646 645.09802 467.776646M646.719354 707.918869l-2.540606-0.823596c-41.691798-18.879354-86.419394-28.480646-132.822626-28.480646-47.934061 0-93.26804 9.69697-134.777535 28.753455l-2.510869 0.766707c-1.560566 0.425374-3.671919 1.035636-6.30303 1.035636-15.261737 0-27.650586-12.388848-27.650586-27.591111 0-7.217131 3.393939-14.469172 8.994909-19.913697l-0.338747-1.682101 7.065859-3.181899c49.555394-22.423273 103.458909-34.231596 155.858747-34.231596 53.378586 0 105.686626 11.504485 156.161293 34.509576 8.868202 4.864 14.408404 14.192485 14.408404 24.318707C682.264566 699.231677 666.144323 713.883152 646.719354 707.918869" />

</svg>
