<?xml version="1.0" encoding="utf-8"?>
<!DOCTYPE svg PUBLIC "-//W3C//DTD SVG 1.1//EN" "http://www.w3.org/Graphics/SVG/1.1/DTD/svg11.dtd">
<svg style="width:308px;height:308px;" version="1.1" id="图形" xmlns="http://www.w3.org/2000/svg" xmlns:xlink="http://www.w3.org/1999/xlink" x="0px" y="0px" width="1024px" height="1024px" viewBox="0 0 1024 1024" enable-background="new 0 0 1024 1024" xml:space="preserve">
  <path class="svgpath" data-index="path_0" fill="#ffffff" d="M399.747403 677.263951c1.75497 2.65241 3.510964 4.765537 4.90573 6.294356 41.229007 52.15587 82.772168 86.86744 84.573187 88.351234l28.941146 24.054859 28.806069-24.234961c1.799996-1.483794 43.209104-36.599569 84.34806-88.620363 1.39579-1.573845 3.195785-3.731998 4.950755-6.384407 58.827827-80.122829 131.967614-196.215894 148.486846-296.751634 3.195785-22.88522 3.285836-36.778648 3.285836-38.307468 0.540306-75.087139-28.085662-145.67787-80.611969-198.5081-50.860365-51.167357-118.14991-79.358419-189.444677-79.358419-71.025637 0-138.134057 28.191062-188.995445 79.358419-52.79646 53.100382-81.602529 124.051317-81.062224 199.722764 0 1.213641 0.090051 15.107069 3.15076 36.913724C268.815375 487.388463 351.362416 611.708909 399.747403 677.263951zM517.987365 245.670236c62.023612 0 112.523773 50.402947 112.523773 112.406093 0 62.003146-50.500161 112.406093-112.523773 112.406093s-112.523773-50.402947-112.523773-112.406093C405.463592 296.073182 455.964776 245.670236 517.987365 245.670236z" />
<path class="svgpath" data-index="path_1" fill="#ffffff" d="M942.741301 286.814308l-30.722722 8.966209 0 0.104377-88.533382 26.13831c-0.87902 15.799848-1.231037 28.223808-4.176113 52.261271l92.709495-31.451316 0 493.187539L648.879484 913.508513l0 0.410346-313.736471-90.862427 0-0.12996-0.207731 0.069585-0.240477-0.069585 0 0.150426L110.275569 898.3073 110.275569 411.495982l92.90904-23.458271c-2.24411-13.380752-3.14155-27.65485-3.14155-41.927925l0-1.784646L65.392336 378.224204l0 22.301935 0 557.550429 44.883233-15.165398 224.659713-75.311243 313.944202 90.922802 307.098283-90.433662L955.977767 305.435411 955.977767 282.906302 942.741301 286.814308z" />

</svg>
