<?xml version="1.0" encoding="utf-8"?>
<!DOCTYPE svg PUBLIC "-//W3C//DTD SVG 1.1//EN" "http://www.w3.org/Graphics/SVG/1.1/DTD/svg11.dtd">
<svg style="width:308px;height:308px;" version="1.1" id="图形" xmlns="http://www.w3.org/2000/svg" xmlns:xlink="http://www.w3.org/1999/xlink" x="0px" y="0px" width="1024px" height="1024px" viewBox="0 0 1024 1024" enable-background="new 0 0 1024 1024" xml:space="preserve">
  <path class="svgpath" data-index="path_0" fill="#b2b2b2" d="M155.034471 120.208802c52.832276 6.577812 107.421568 6.334265 164.008354-1.455141 56.922431-7.820106 115.635647-23.307845 176.284959-47.163159l16.671705-6.576789 16.639982 6.576789c60.652382 23.855314 119.362528 39.343053 176.285982 47.163159 56.618509 7.789407 111.208824 8.032954 164.040077 1.455141l56.133462-7.002484-0.728594 63.076594c-3.028986 267.911796-46.283116 446.044846-115.875101 565.315276-73.048713 125.243469-172.798555 185.28903-285.127899 214.446094l-11.399631 2.942005-11.335163-2.942005c-112.329345-29.15604-212.082256-89.202625-285.159622-214.446094-69.562309-119.300107-112.813369-297.404504-115.843378-565.315276l-0.728594-63.076594L155.034471 120.208802 155.034471 120.208802zM511.999488 519.66661l275.217179 0c19.155269-76.653821 31.553647-170.038698 35.796274-283.823184-42.61661 1.849114-86.021166-0.122797-130.213667-6.213515-58.499345-8.033977-118.725008-23.309892-180.800809-46.466288L511.998465 519.66661 511.999488 519.66661zM511.999488 844.261383 511.999488 519.66661 236.750587 519.66661c16.306384 65.137533 37.434587 118.18061 62.560848 161.250544C353.233532 773.365706 427.554214 820.132846 511.999488 844.261383z" />

</svg>
