<?xml version="1.0" encoding="utf-8"?>
<!DOCTYPE svg PUBLIC "-//W3C//DTD SVG 1.1//EN" "http://www.w3.org/Graphics/SVG/1.1/DTD/svg11.dtd">
<svg style="width:308px;height:308px;" version="1.1" id="图形" xmlns="http://www.w3.org/2000/svg" xmlns:xlink="http://www.w3.org/1999/xlink" x="0px" y="0px" width="1024px" height="1024px" viewBox="0 0 1024 1024" enable-background="new 0 0 1024 1024" xml:space="preserve">
  <path class="svgpath" data-index="path_0" fill="#848484" d="M920.296103 72.830749l1.026376-9.209756c0-5.116531-1.026376-10.233062-4.103458-13.302981-4.103458-4.093225-9.233292-6.139837-14.362102-6.139837l-9.233292 0 0 0L658.69913 44.178175c-10.258645 0-18.46556 9.209756-19.491936 19.442818l0 13.302981c2.051729 11.256368 11.285021 18.419512 21.543665 18.419512l172.346253 0-205.173916 202.614627c-55.396681-46.048779-127.208217-74.701352-205.173916-74.701352-176.449711 0-320.071759 143.262868-320.071759 319.271534 0 177.031972 143.622048 320.29484 320.071759 320.29484s320.071759-143.262868 320.071759-319.271534c0-79.817883-29.750581-152.472624-77.965699-208.754464l205.173916-203.637933-1.026376 174.98536c0 10.233062 8.206916 19.442818 18.46556 19.442818l13.33675 0c10.258645 0 18.46556-6.139837 19.491936-16.372899L920.296103 72.830749 920.296103 72.830749 920.296103 72.830749zM691.526793 543.5516c0 148.379399-121.05303 268.106224-268.778536 268.106224-148.750859 0-268.778536-119.726825-268.778536-268.106224s121.05303-268.106224 268.778536-268.106224C571.500139 275.445376 691.526793 395.172201 691.526793 543.5516L691.526793 543.5516z" />

</svg>
