<?xml version="1.0" encoding="utf-8"?>
<!DOCTYPE svg PUBLIC "-//W3C//DTD SVG 1.1//EN" "http://www.w3.org/Graphics/SVG/1.1/DTD/svg11.dtd">
<svg style="width:308px;height:308px;" version="1.1" id="图形" xmlns="http://www.w3.org/2000/svg" xmlns:xlink="http://www.w3.org/1999/xlink" x="0px" y="0px" width="1024px" height="1024px" viewBox="0 0 1024 1024" enable-background="new 0 0 1024 1024" xml:space="preserve">
  <path class="svgpath" data-index="path_0" fill="#ff946e" d="M608.012 895.66l0-56.352c164.594-36.272 274.32-163.332 274.32-327.308 0-164.9-113.236-296.288-274.32-327.31L608.012 128.34C793.888 155.544 937.198 316.064 937.198 512S793.888 868.454 608.012 895.66zM470.852 841.184l-192.024-128.024L278.828 310.84l192.024-128.026c30.298 0 54.866 24.566 54.866 54.864l0 548.64C525.716 816.618 501.15 841.184 470.852 841.184zM223.962 676.592 141.668 676.592c-30.298 0-54.866-24.564-54.866-54.864L86.802 402.27c0-30.298 24.566-54.864 54.866-54.864l82.294 0L223.962 676.592zM772.606 512c0 96.654-71.662 175.844-164.594 189.266l0-54.878c62.608-12.71 109.728-68.03 109.728-134.386s-47.122-121.676-109.728-134.402l0-54.864C700.944 336.156 772.606 415.344 772.606 512z" />

</svg>
