<?xml version="1.0" encoding="utf-8"?>
<!DOCTYPE svg PUBLIC "-//W3C//DTD SVG 1.1//EN" "http://www.w3.org/Graphics/SVG/1.1/DTD/svg11.dtd">
<svg style="width:308px;height:308px;" version="1.1" id="图形" xmlns="http://www.w3.org/2000/svg" xmlns:xlink="http://www.w3.org/1999/xlink" x="0px" y="0px" width="1024px" height="1024px" viewBox="0 0 1024 1024" enable-background="new 0 0 1024 1024" xml:space="preserve">
  <path class="svgpath" data-index="path_0" fill="#eb4f38" d="M523.434935 212.426087c15.380292-12.310374 29.271674-25.210172 44.902676-35.69292 49.799196-33.582863 104.904235-47.195905 164.410514-38.109969 83.201957 12.775978 143.483902 58.640562 182.647877 132.163065 21.335934 40.003086 29.487591 83.198887 28.653597 128.659265-0.836041 42.823318-14.110369 81.429591-33.92567 118.456902-18.978237 35.443233-42.543955 67.754127-68.191078 98.701976-40.343847 48.685839-84.997859 93.092211-131.789559 135.575792-50.607608 45.860491-103.758132 88.594781-158.397566 129.618103-11.938913 8.964162-24.871457 12.964266-39.350217 8.56098-5.458315-1.705851-10.885931-4.558829-15.504112-7.938809-79.136362-58.608839-154.522306-121.405047-223.797066-191.455473-40.158628-40.590464-77.927837-83.198887-109.807918-130.829697-19.505239-29.210275-36.155455-59.880809-47.258327-93.370551-7.502881-22.791076-10.109242-46.235021-11.040451-70.112847-4.246721-106.114806 60.595077-207.145827 159.76368-244.760516 74.763774-28.249391 146.397255-19.412119 213.904765 23.258727 15.503089 9.705036 29.39754 21.519106 42.10905 34.729989C521.913279 211.091696 523.12385 212.116025 523.434935 212.426087" />

</svg>
