<?xml version="1.0" encoding="utf-8"?>
<!DOCTYPE svg PUBLIC "-//W3C//DTD SVG 1.1//EN" "http://www.w3.org/Graphics/SVG/1.1/DTD/svg11.dtd">
<svg style="width:308px;height:308px;" version="1.1" id="图形" xmlns="http://www.w3.org/2000/svg" xmlns:xlink="http://www.w3.org/1999/xlink" x="0px" y="0px" width="1024px" height="1024px" viewBox="0 0 1024 1024" enable-background="new 0 0 1024 1024" xml:space="preserve">
  <path class="svgpath" data-index="path_0" fill="#5e5e5e" d="M512 64C264.64 64 64 264.64 64 512c0 247.424 200.64 448 448 448 247.488 0 448-200.576 448-448C960 264.64 759.488 64 512 64zM512 896.768c-212.48 0-384.768-172.224-384.768-384.768S299.52 127.232 512 127.232 896.64 299.52 896.64 512 724.48 896.768 512 896.768zM357.312 384c20.672 0 37.376 16.768 37.376 37.376 0 20.672-16.704 37.44-37.376 37.44-20.608 0-37.376-16.768-37.376-37.44C319.936 400.768 336.704 384 357.312 384zM671.936 384c20.608 0 37.376 16.768 37.376 37.376 0 20.672-16.768 37.44-37.376 37.44S634.496 442.048 634.496 421.376C634.496 400.768 651.328 384 671.936 384zM352 704C334.336 704 320 689.664 320 672l0 0C320 654.336 334.336 640 352 640l320 0c17.664 0 32 14.336 32 32l0 0c0 17.664-14.336 32-32 32L352 704z" />

</svg>
