<?xml version="1.0" encoding="utf-8"?>
<!DOCTYPE svg PUBLIC "-//W3C//DTD SVG 1.1//EN" "http://www.w3.org/Graphics/SVG/1.1/DTD/svg11.dtd">
<svg style="width:308px;height:308px;" version="1.1" id="图形" xmlns="http://www.w3.org/2000/svg" xmlns:xlink="http://www.w3.org/1999/xlink" x="0px" y="0px" width="1024px" height="1024px" viewBox="0 0 1024 1024" enable-background="new 0 0 1024 1024" xml:space="preserve">
  <path class="svgpath" data-index="path_0" fill="#969696" d="M511.465834 269.568529c169.452343 0 315.308269 99.390661 383.564839 242.839771l66.51388 0c-72.088852-177.909969-246.292406-303.525921-450.078719-303.525921-203.75459 0-377.958144 125.616976-450.046996 303.525921l66.514903 0C196.189288 368.95919 342.045213 269.568529 511.465834 269.568529z" />
<path class="svgpath" data-index="path_1" fill="#969696" d="M511.465834 755.24807c-169.420621 0-315.276547-99.390661-383.532093-242.839771l-66.514903 0c72.087828 177.940668 246.291382 303.557644 450.046996 303.557644 203.786313 0 377.989867-125.616976 450.078719-303.557644l-66.51388 0C826.774103 655.857409 680.919201 755.24807 511.465834 755.24807z" />
<path class="svgpath" data-index="path_2" fill="#969696" d="M349.594143 512.423649c0 89.412402 72.473615 161.886017 161.884994 161.886017 89.413426 0 161.886017-72.473615 161.886017-161.886017 0-89.413426-72.472592-161.886017-161.886017-161.886017C422.066735 350.537631 349.594143 423.010223 349.594143 512.423649zM612.67798 512.423649c0 55.879682-45.320185 101.19782-101.198843 101.19782s-101.166097-45.318138-101.166097-101.19782c0-55.879682 45.287439-101.198843 101.166097-101.198843S612.67798 456.543967 612.67798 512.423649z" />

</svg>
