<?xml version="1.0" encoding="utf-8"?>
<!DOCTYPE svg PUBLIC "-//W3C//DTD SVG 1.1//EN" "http://www.w3.org/Graphics/SVG/1.1/DTD/svg11.dtd">
<svg style="width:308px;height:308px;" version="1.1" id="图形" xmlns="http://www.w3.org/2000/svg" xmlns:xlink="http://www.w3.org/1999/xlink" x="0px" y="0px" width="1024px" height="1024px" viewBox="0 0 1024 1024" enable-background="new 0 0 1024 1024" xml:space="preserve">
  <path class="svgpath" data-index="path_0" fill="#272636" d="M193.522552 346.80768c0 0 138.483005 23.992437 252.80575-28.088732 120.379695-54.841026 174.352957-35.682687 192.609763-41.46539 80.254835-25.413809 132.421962-74.903967 176.560228-135.093814 0 0-50.828642 156.497287-152.482857 185.92348 0 0 49.525973 15.784498 1.335415 93.628424-17.386996 28.090778-4.013407 89.618087 8.025791 93.631494 12.041244 4.013407 160.665213-14.94334 158.068062 40.48404-2.744507 58.56279-109.913319 176.205141-184.818309 181.553962 0 0 102.009302-80.046081 106.461707-142.376685 1.38044-19.360953-19.170618-27.588335-74.012667-0.836041-54.842049 26.751271-58.56279 35.685757-58.56279 35.685757s-46.116317 207.846792-149.109016 251.986081c0 0 94.236268-162.509211 61.527308-271.529183l-45.476751-20.062941c0 0 62.22418-87.189781 66.8792-131.084501 9.363252-88.278579-49.490158-111.017466-49.490158-111.017466s-135.049812 31.588439-173.886329 33.4396C273.777387 384.261711 193.522552 346.80768 193.522552 346.80768z" />
<path class="svgpath" data-index="path_1" fill="#272636" d="M549.918611 142.209886c-12.739139 0-24.300452 6.726192-32.828686 17.654079-4.273327-9.671267-13.122879-16.315594-23.348778-16.315594-14.405081 0-26.084075 13.174044-26.084075 29.426193 0 16.253172 11.678994 29.427216 26.084075 29.427216 3.108804 0 6.090718-0.61603 8.858762-1.743714-0.100284 1.680269-0.165776 3.371794-0.165776 5.085832 0 35.091216 21.26021 63.535035 47.484478 63.535035 26.226315 0 47.483454-28.444842 47.483454-63.535035C597.402065 170.654728 576.144926 142.209886 549.918611 142.209886z" />

</svg>
