<?xml version="1.0" encoding="utf-8"?>
<!DOCTYPE svg PUBLIC "-//W3C//DTD SVG 1.1//EN" "http://www.w3.org/Graphics/SVG/1.1/DTD/svg11.dtd">
<svg style="width:308px;height:308px;" version="1.1" id="图形" xmlns="http://www.w3.org/2000/svg" xmlns:xlink="http://www.w3.org/1999/xlink" x="0px" y="0px" width="1024px" height="1024px" viewBox="0 0 1024 1024" enable-background="new 0 0 1024 1024" xml:space="preserve">
  <path class="svgpath" data-index="path_0" fill="#272636" d="M509.53332 64.076364c-246.809175 0-447.590038 200.780863-447.590038 447.592085 0 246.816339 200.780863 447.597201 447.590038 447.597201 246.818385 0 447.598224-200.780863 447.598224-447.597201C957.131545 264.857227 756.351706 64.076364 509.53332 64.076364zM509.53332 929.830247c-230.573399 0-418.152589-187.617052-418.152589-418.160775 0-230.575446 187.579189-418.155658 418.152589-418.155658 230.544747 0 418.162822 187.580213 418.162822 418.155658C927.695119 742.213195 740.078067 929.830247 509.53332 929.830247z" />
<path class="svgpath" data-index="path_1" fill="#272636" d="M509.534344 228.590232c-156.092058 0-283.078217 126.987183-283.078217 283.07924 0 156.071591 126.986159 283.083333 283.078217 283.083333 156.072615 0 283.08538-127.011742 283.08538-283.083333C792.618701 355.577415 665.605935 228.590232 509.534344 228.590232z" />

</svg>
