<?xml version="1.0" encoding="utf-8"?>
<!DOCTYPE svg PUBLIC "-//W3C//DTD SVG 1.1//EN" "http://www.w3.org/Graphics/SVG/1.1/DTD/svg11.dtd">
<svg style="width:308px;height:308px;" version="1.1" id="图形" xmlns="http://www.w3.org/2000/svg" xmlns:xlink="http://www.w3.org/1999/xlink" x="0px" y="0px" width="1024px" height="1024px" viewBox="0 0 1024 1024" enable-background="new 0 0 1024 1024" xml:space="preserve">
  <path class="svgpath" data-index="path_0" fill="#272636" d="M381.158 687.761c41.927 42.042 92.095 61.512 141.649 58.407 42.772-2.644 85.12-22.114 121.337-58.407 31.12-30.047 56.721-76.153 73.661-131.877 16.902-9.16 38.708-26.023 58.638-57.374 68.985-108.345 8.508-243.518-92.401-321.586 2.107-9.083 3.219-18.473 3.219-28.131 0-80.329-77.302-145.482-172.694-145.482-95.392 0-172.732 65.153-172.732 145.482 0 7.742 0.728 15.329 2.107 22.765-106.466 79.179-161.961 222.632-95.544 326.952 20.658 32.5 43.384 49.554 60.516 58.331 14.717 50.704 37.060 94.586 72.242 130.918v0zM680.477 174.204c-49.133-37.022-107.425-60.554-164.875-61.129-58.638-0.613-113.94 18.895-160.544 50.551 25.409-53.694 87.726-91.674 160.505-91.674 77.455 0.038 143.029 43.039 164.914 102.252v0zM220.805 799.978c41.467 0 82.975 0 124.48 0-1.112 7.474-1.686 15.139-1.686 22.919 0 85.464 68.871 155.754 156.712 163.303 2.414-25.218-1.226-32.576-15.752-67.759 5.020-1.839 10.003-3.718 15.023-5.442 11.766 13.721 18.588 23.378 22.458 31.772 3.909-8.393 10.731-18.052 22.458-31.772 5.020 1.724 10.041 3.603 15.061 5.442-14.258 34.493-18.014 42.273-15.866 66.379 82.169-12.533 144.983-80.291 144.983-161.923 0-7.78-0.575-15.445-1.686-22.919 40.28 0 80.559 0 120.878 0 58.676 64.846 84.545 145.329 87.343 236.735-252.601 0-505.202 0-757.764 0 0.767-86.692 26.713-166.101 83.357-236.735v0zM479.386 415.192c2.721 2.836 5.442 5.673 8.124 8.469 47.983-16.251 86.653-41.353 119.154-72.242l83.013 51.049c-4.867 90.755-22.076 163.035-52.851 213.624-28.591 47.025-69.637 75.041-124.174 80.904-54.575-5.863-95.583-33.88-124.174-80.904-29.281-48.136-46.297-115.934-52.045-200.556 43.576 1.303 85.657-2.836 125.744-14.027 30.354-8.393 59.442-20.887 86.999-38.211-22.305 19.392-45.837 36.063-69.791 51.893v0zM362.685 356.363c47.025-23.724 94.012-47.484 140.999-71.208 5.519 6.937 10.999 13.797 16.518 20.658-48.021 36.831-100.718 52.888-157.517 50.551v0zM288.947 296.269c20.696-51.049 59.557-91.904 115.205-123.484 4.561 6.975 9.083 13.951 13.605 20.887-51.777 28.552-95.161 62.432-128.811 102.597z" />

</svg>
