<?xml version="1.0" encoding="utf-8"?>
<!DOCTYPE svg PUBLIC "-//W3C//DTD SVG 1.1//EN" "http://www.w3.org/Graphics/SVG/1.1/DTD/svg11.dtd">
<svg style="width:308px;height:308px;" version="1.1" id="图形" xmlns="http://www.w3.org/2000/svg" xmlns:xlink="http://www.w3.org/1999/xlink" x="0px" y="0px" width="1024px" height="1024px" viewBox="0 0 1024 1024" enable-background="new 0 0 1024 1024" xml:space="preserve">
  <path class="svgpath" data-index="path_0" fill="#272636" d="M511.869 62.3c-248.051 0-449.85 201.803-449.85 449.85 0 248.051 201.799 449.85 449.85 449.85 248.047 0 449.85-201.799 449.85-449.85 0.001-248.047-201.803-449.85-449.85-449.85zM511.869 921.103c-225.495 0-408.95-183.455-408.95-408.954s183.455-408.949 408.95-408.949 408.95 183.45 408.95 408.95-183.455 408.953-408.95 408.953zM719.843 489.044h-184.864v-184.87c0-12.77-10.349-23.106-23.11-23.106s-23.11 10.336-23.11 23.106v184.869h-184.864c-12.761 0-23.11 10.336-23.11 23.106 0 12.774 10.349 23.11 23.11 23.11h184.864v184.864c0 12.774 10.349 23.11 23.11 23.11s23.11-10.336 23.11-23.11v-184.864h184.864c12.761 0 23.11-10.336 23.11-23.11 0-12.77-10.349-23.105-23.11-23.105z" />

</svg>
