<?xml version="1.0" encoding="utf-8"?>
<!DOCTYPE svg PUBLIC "-//W3C//DTD SVG 1.1//EN" "http://www.w3.org/Graphics/SVG/1.1/DTD/svg11.dtd">
<svg style="width:308px;height:308px;" version="1.1" id="图形" xmlns="http://www.w3.org/2000/svg" xmlns:xlink="http://www.w3.org/1999/xlink" x="0px" y="0px" width="1024px" height="1024px" viewBox="0 0 1024 1024" enable-background="new 0 0 1024 1024" xml:space="preserve">
  <path class="svgpath" data-index="path_0" fill="#272636" d="M368.413256 501.6994c0 28.251438-22.936385 51.093678-51.232848 51.093678-28.250414 0-51.186799-22.842241-51.186799-51.093678 0-28.250414 22.936385-51.185776 51.186799-51.185776C345.476871 450.513624 368.413256 473.448986 368.413256 501.6994z" />
<path class="svgpath" data-index="path_1" fill="#272636" d="M955.006138 473.356888c0-213.137285-199.057615-386.55494-443.802782-386.55494-244.74312 0-443.801758 173.417655-443.801758 386.55494 0 126.614699 71.325465 245.208724 190.94689 317.465398l0 121.859395c0 8.674567 4.754281 16.597003 12.353352 20.606317 3.496637 1.958608 7.179516 2.889817 11.141758 2.889817 4.568039 0 9.04398-1.304715 12.960173-3.913123l56.221466-37.109176c1.072425-0.653893 2.097778-1.493004 2.703575-2.052752l63.587224-42.329061c31.699979 5.965875 63.305815 9.04398 93.981465 9.04398C755.9475 859.725586 955.006138 686.399005 955.006138 473.356888zM293.404911 756.88536C181.242366 693.671643 114.34577 587.662237 114.34577 473.262744c0-187.217962 178.033789-339.564719 396.856563-339.564719 218.824821 0 396.857587 152.346757 396.857587 339.564719S729.981105 812.827463 511.203356 812.827463c-30.581506 0-62.280462-3.357468-94.167706-9.977235-6.060019-1.396813-12.493545-0.092098-17.807574 3.451612l-74.402547 49.600675c-1.025353 0.559748-2.517333 1.864464-2.517333 1.864464l-16.969487 11.18883 0-91.651396C305.338708 768.821203 300.723597 761.079892 293.404911 756.88536z" />
<path class="svgpath" data-index="path_2" fill="#272636" d="M570.967508 487.341391c0 28.250414-22.935362 51.27992-51.278897 51.27992-28.250414 0-51.186799-23.029506-51.186799-51.27992s22.936385-51.093678 51.186799-51.093678C548.032146 436.247712 570.967508 459.090976 570.967508 487.341391z" />
<path class="svgpath" data-index="path_3" fill="#272636" d="M771.14462 487.341391c0 28.250414-22.936385 51.27992-51.186799 51.27992-28.250414 0-51.186799-23.029506-51.186799-51.27992s22.936385-51.093678 51.186799-51.093678C748.208235 436.247712 771.14462 459.090976 771.14462 487.341391z" />

</svg>
