<?xml version="1.0" encoding="utf-8"?>
<!DOCTYPE svg PUBLIC "-//W3C//DTD SVG 1.1//EN" "http://www.w3.org/Graphics/SVG/1.1/DTD/svg11.dtd">
<svg style="width:308px;height:308px;" version="1.1" id="图形" xmlns="http://www.w3.org/2000/svg" xmlns:xlink="http://www.w3.org/1999/xlink" x="0px" y="0px" width="1024px" height="1024px" viewBox="0 0 1024 1024" enable-background="new 0 0 1024 1024" xml:space="preserve">
  <path class="svgpath" data-index="path_0" fill="#272636" d="M614.0692 251.3418c-88.8443 0-160.8714 71.9872-160.8714 160.8714 0 88.8443 72.0271 160.8704 160.8714 160.8704s160.8694-72.0261 160.8694-160.8704C774.9376 323.328 702.9125 251.3418 614.0692 251.3418zM938.666 0H85.334016C38.1665 0 0 38.1676 0 85.334v853.332992C0 985.7495 38.1665 1024 85.334 1024h853.331968c47.1255 0 85.334-38.2505 85.334-85.333V85.334016C1024 38.1676 985.7925 0 938.666 0zM614.0692 653.4963c-46.0257 0-89.0378-12.8829-125.6335-35.2328l-75.4657 75.4627 80.4567 80.4557-80.4567 80.4127-80.4147-80.4127-80.4557 80.4127-80.4147-80.4127 80.4147-80.4557-80.4147-80.4536 80.4147-80.4178 80.4557 80.4178 75.433-75.436c-22.357-36.5885-35.2461-79.5965-35.2461-125.6233 0-133.2859 108.0422-241.2851 241.3281-241.2851 133.2879 0 241.3261 107.9992 241.3261 241.2851C855.3953 545.5002 747.3572 653.4963 614.0692 653.4963z" />

</svg>
