<?xml version="1.0" encoding="utf-8"?>
<!DOCTYPE svg PUBLIC "-//W3C//DTD SVG 1.1//EN" "http://www.w3.org/Graphics/SVG/1.1/DTD/svg11.dtd">
<svg style="width:308px;height:308px;" version="1.1" id="图形" xmlns="http://www.w3.org/2000/svg" xmlns:xlink="http://www.w3.org/1999/xlink" x="0px" y="0px" width="1024px" height="1024px" viewBox="0 0 1024 1024" enable-background="new 0 0 1024 1024" xml:space="preserve">
  <path class="svgpath" data-index="path_0" fill="#272636" d="M314.325895 564.835346c29.065989-8.013511 35.582403-40.993646 33.537837-62.965054-2.360767-25.341155-16.754592-39.886429-31.572066-47.566342-36.606733-18.960841-61.58666-56.69628-61.58666-100.244099 0-51.983955 35.597753-95.689363 84.079954-109.061928 0 0 16.945951-14.127765 10.369162-39.86187-5.487991-21.469987-28.16548-38.162158-59.297524-24.183795-66.565045 29.880541-112.853277 95.820346-112.853277 172.535565 0 61.012585 29.365818 115.151623 74.812893 149.880589C142.006248 548.735669 63.87375 653.471059 63.87375 785.088702l0.206708 0.00307c-0.011256 0.379647-0.112564 0.734734-0.112564 1.116427 0 21.657252 17.555841 39.213094 39.21207 39.213094 21.660322 0 39.21514-17.555841 39.21514-39.213094 0-1.726318-0.291642-3.372817-0.50756-5.03876C145.402601 677.804257 217.138412 591.629595 314.325895 564.835346zM961.013457 848.106967c0-97.202832-39.347147-185.203072-102.963023-248.982678l-0.080841 0.080841c-7.706519-7.874341-18.424628-12.791327-30.3134-12.791327-23.448038 0-42.453904 19.006889-42.453904 42.453904 0 11.889795 4.915963 22.604834 12.791327 30.311353l-0.26913 0.271176c46.207391 48.004317 74.772984 113.40484 74.772984 185.622628 0 1.023306-0.140193 2.009773-0.151449 3.03308l0.278339 0c-0.005117 0.276293-0.081864 0.532119-0.081864 0.810459 0 24.432459 19.804045 44.236504 44.236504 44.236504 24.431435 0 44.236504-19.804045 44.236504-44.236504 0-0.278339-0.077771-0.534166-0.081864-0.810459L961.013457 848.105944zM608.417957 122.175597c-126.002762 0-228.15021 102.142331-228.15021 228.15021 0 71.107501 32.550347 134.596488 83.543741 176.437431-122.540917 55.245232-207.989031 178.197518-207.989031 321.342706l0.405229 0c-0.005117 0.276293-0.081864 0.532119-0.081864 0.810459 0 24.432459 19.807115 44.236504 44.237527 44.236504 24.431435 0 44.236504-19.804045 44.236504-44.236504 0-0.587378-0.150426-1.136893-0.172939-1.721201-0.044002-0.704035-0.106424-1.404999-0.106424-2.121314 0-147.211806 118.231775-266.553868 264.078491-266.553868 0.218988 0 0.428765 0.032746 0.647753 0.032746l0-0.10847c125.699863-0.354064 227.502457-102.332666 227.502457-228.117464C836.568167 224.317928 734.420719 122.175597 608.417957 122.175597zM608.417957 495.221872c-80.18525 0-145.186683-65.00041-145.186683-145.184637 0-80.186274 65.001433-145.189753 145.186683-145.189753 80.184227 0 145.18566 65.002456 145.18566 145.189753C753.602593 430.221462 688.60116 495.221872 608.417957 495.221872z" />

</svg>
