<?xml version="1.0" encoding="utf-8"?>
<!DOCTYPE svg PUBLIC "-//W3C//DTD SVG 1.1//EN" "http://www.w3.org/Graphics/SVG/1.1/DTD/svg11.dtd">
<svg style="width:308px;height:308px;" version="1.1" id="图形" xmlns="http://www.w3.org/2000/svg" xmlns:xlink="http://www.w3.org/1999/xlink" x="0px" y="0px" width="1025px" height="1024px" viewBox="0 0 1025 1024" enable-background="new 0 0 1025 1024" xml:space="preserve">
  <path class="svgpath" data-index="path_0" fill="#272636" d="M959.247207 256.002558 64.028246 256.002558c-64.028269 0-64.028269 64.49899-64.028269 64.49899l0 386.656247c0 60.845787 64.028269 60.845787 64.028269 60.845787l895.392924 0c63.853283-0.306992 64.539922-64.048735 64.539922-64.048735l0-383.954719C1023.961091 256.002558 959.247207 256.002558 959.247207 256.002558zM606.718222 372.894825c11.184737 16.004509 22.778796 33.574676 34.770921 52.761668-8.809643 4.01136-20.384259 10.79588-34.770921 20.384259-9.598612-19.186991-19.995403-36.757159-31.18014-52.761668L606.718222 372.894825zM218.179091 374.092094c5.577019 5.607718 12.781094 12.801561 21.581528 21.591761 7.981788 7.193843 16.792455 15.994276 26.380834 26.380834l-32.377408 27.578102c-10.396791-12.781094-25.183566-29.982872-44.370557-51.564399L218.179091 374.092094zM192.995526 621.128443c7.193843-7.192819 10.79588-15.98302 10.79588-26.37981l0-94.737688-28.785603 0 0-37.176714 67.159586 0 0 101.93153c11.184737-10.386558 21.970384-20.385283 32.377408-29.983895 3.182482 10.396791 7.193843 22.001083 11.993149 34.782178-26.391067 24.784476-50.367131 50.356898-71.958892 76.747965L192.995526 621.128443zM438.824374 637.910665c-4.01136 5.587252-7.193843 9.987468-9.588379 13.190417-37.586037-30.371728-61.163011-67.937299-70.751391-112.716154-13.609972 44.779879-38.373982 82.34545-74.353428 112.716154-8.002254-14.387685-17.201777-27.179013-27.578102-38.373982 34.362622-28.774347 55.555294-56.752562 63.557548-83.941807 9.588379-25.572422 13.978363-76.747965 13.190417-153.49593l41.965787 0c0 17.600867-0.798179 39.182394-2.394537 64.754816 7.981788 84.750219 36.368302 141.502781 85.139076 170.288384C453.222292 616.738459 446.806162 625.917516 438.824374 637.910665zM599.524379 637.910665l-17.989723-28.77537c4.789073-6.395664 7.193843-13.589506 7.193843-21.591761l0-91.13565-22.790052 0 0-37.176714 62.36028 0 0 113.924679c3.182482-2.394537 7.592932-5.995551 13.190417-10.79588 5.587252-3.989871 9.598612-7.193843 11.994172-9.588379 0 8.002254 2.394537 21.192671 7.192819 39.571251-10.396791 7.193843-27.188222 19.596314-50.367131 37.176714C605.509697 633.510448 601.918916 636.304074 599.524379 637.910665zM848.955265 639.107933l-201.468524 0L647.486741 604.337012l22.789029 0 0-142.700049 38.373982 0 0 142.700049 31.169907 0 0-173.880189-83.940784 0 0-38.373982 189.475376 0 0 38.373982-67.160609 0 0 63.557548 59.966767 0 0 38.373982-59.966767 0 0 71.949682 70.761624 0L848.955265 639.107933z" />

</svg>
