<?xml version="1.0" encoding="utf-8"?>
<!DOCTYPE svg PUBLIC "-//W3C//DTD SVG 1.1//EN" "http://www.w3.org/Graphics/SVG/1.1/DTD/svg11.dtd">
<svg style="width:308px;height:308px;" version="1.1" id="图形" xmlns="http://www.w3.org/2000/svg" xmlns:xlink="http://www.w3.org/1999/xlink" x="0px" y="0px" width="1024px" height="1024px" viewBox="0 0 1024 1024" enable-background="new 0 0 1024 1024" xml:space="preserve">
  <path class="svgpath" data-index="path_0" fill="#7f7f7f" d="M511.527233 62.969147c-248.320599 0-449.613114 201.291492-449.613114 449.613114 0 248.315482 201.291492 449.606974 449.613114 449.606974 248.315482 0 449.606974-201.291492 449.606974-449.606974C961.134207 264.260639 759.842715 62.969147 511.527233 62.969147zM511.527233 917.227208c-223.481887 0-404.651087-181.169199-404.651087-404.644947 0-223.481887 181.169199-404.651087 404.651087-404.651087 223.475747 0 404.644947 181.169199 404.644947 404.651087C916.172179 736.058009 735.00298 917.227208 511.527233 917.227208z" />
<path class="svgpath" data-index="path_1" fill="#7f7f7f" d="M702.877305 321.206606c-7.973602-7.971555-20.98187-7.971555-28.954449 0L511.503696 483.624742 349.126492 321.247538c-7.973602-7.973602-21.021779-7.973602-28.954449 0-7.971555 7.971555-7.971555 20.98187 0 28.952402l162.378228 162.378228-162.378228 162.378228c-7.971555 7.973602-7.971555 20.98187 0 28.954449 7.973602 7.971555 20.980847 7.971555 28.954449 0l162.378228-162.378228L673.922856 703.950753c7.972579 7.973602 20.980847 7.973602 28.954449 0 7.971555-7.971555 7.971555-20.98187 0-28.953426L540.459169 512.579191l162.418137-162.418137C710.84886 342.188476 710.84886 329.179185 702.877305 321.206606z" />

</svg>
