<?xml version="1.0" encoding="utf-8"?>
<!DOCTYPE svg PUBLIC "-//W3C//DTD SVG 1.1//EN" "http://www.w3.org/Graphics/SVG/1.1/DTD/svg11.dtd">
<svg style="width:308px;height:308px;" version="1.1" id="图形" xmlns="http://www.w3.org/2000/svg" xmlns:xlink="http://www.w3.org/1999/xlink" x="0px" y="0px" width="1024px" height="1024px" viewBox="0 0 1024 1024" enable-background="new 0 0 1024 1024" xml:space="preserve">
  <path class="svgpath" data-index="path_0" fill="#7f7f7f" d="M536.4736 529.152l226.8672-226.8672c6.656-6.656 6.656-17.4592 0-24.1152s-17.4592-6.656-24.1664 0l-226.8672 226.8672L285.4912 278.1696c-6.656-6.656-17.4592-6.656-24.1152 0s-6.656 17.4592 0 24.1152l226.8672 226.8672-226.8672 226.8672c-6.656 6.7072-6.656 17.5104 0 24.1664 3.328 3.328 7.68 5.0176 12.0832 5.0176s8.7552-1.6384 12.032-5.0176l226.8672-226.8672 226.8672 226.8672c3.328 3.328 7.7312 5.0176 12.032 5.0176 4.4032 0 8.7552-1.6384 12.0832-5.0176 6.656-6.656 6.656-17.4592 0-24.1664L536.4736 529.152z" />

</svg>
