<?xml version="1.0" encoding="utf-8"?>
<!DOCTYPE svg PUBLIC "-//W3C//DTD SVG 1.1//EN" "http://www.w3.org/Graphics/SVG/1.1/DTD/svg11.dtd">
<svg style="width:308px;height:308px;" version="1.1" id="图形" xmlns="http://www.w3.org/2000/svg" xmlns:xlink="http://www.w3.org/1999/xlink" x="0px" y="0px" width="1024px" height="1024px" viewBox="0 0 1024 1024" enable-background="new 0 0 1024 1024" xml:space="preserve">
  <path class="svgpath" data-index="path_0" fill="#54c5ff" d="M514.049171 65.031109c-246.750847 0-446.778556 200.026686-446.778556 446.777533 0 246.74573 200.026686 446.772416 446.778556 446.772416 246.74573 0 446.772416-200.026686 446.772416-446.772416C960.820564 265.057795 760.794901 65.031109 514.049171 65.031109L514.049171 65.031109zM514.049171 919.743518c-225.290069 0-407.941016-182.650947-407.941016-407.935899 0-225.289046 182.65197-407.939993 407.941016-407.939993 225.283929 0 407.935899 182.65197 407.935899 407.939993C921.984047 737.092571 739.3331 919.743518 514.049171 919.743518L514.049171 919.743518zM604.423481 552.540322c-20.439518 0-35.919071 18.398022-54.461379 18.398022-18.393929 0-99.134835-79.574337-99.134835-99.138928 0-19.561521 18.398022-29.200042 18.398022-49.493228 0-14.602579-54.461379-103.954607-76.800153-103.954607-22.339798 0-76.800153 39.859823-76.800153 76.79606 0 106.878193 197.10924 311.722604 320.483128 311.722604 34.017768 0 76.800153-35.918048 76.800153-76.801177C713.196837 614.739942 624.716666 552.540322 604.423481 552.540322" />

</svg>
