<?xml version="1.0" encoding="utf-8"?>
<!DOCTYPE svg PUBLIC "-//W3C//DTD SVG 1.1//EN" "http://www.w3.org/Graphics/SVG/1.1/DTD/svg11.dtd">
<svg style="width:308px;height:308px;" version="1.1" id="图形" xmlns="http://www.w3.org/2000/svg" xmlns:xlink="http://www.w3.org/1999/xlink" x="0px" y="0px" width="1024px" height="1024px" viewBox="0 0 1024 1024" enable-background="new 0 0 1024 1024" xml:space="preserve">
  <path class="svgpath" data-index="path_0" fill="#272636" d="M509.28261 70.826092c-199.177342 0-355.846544 158.65544-355.846544 353.634156 0 88.381933 77.549214 215.32716 133.763516 278.647301l0 0.080841 0.103354 0.644683 0.381693 0c54.538127 63.751976 166.754908 220.264613 168.797427 223.078705 13.462616 16.700357 32.093952 26.233478 52.339042 26.261107 20.169365 0 39.151695-9.533121 52.931536-26.547633 82.709747-105.540731 102.256942-136.121214 115.311259-156.343791 9.695826-15.017018 14.483876-22.560832 44.450375-56.985876 15.238053-17.563004 149.049664-174.711114 149.049664-288.835338C870.558817 229.481532 708.453812 70.826092 509.28261 70.826092zM509.305123 507.063571c-61.569264 0-111.673405-49.02967-111.673405-109.231797 0-60.247152 50.104141-109.259426 111.673405-109.259426 61.523215 0 111.601774 49.012274 111.601774 109.259426C620.906897 458.033901 570.828338 507.063571 509.305123 507.063571z" />

</svg>
