<?xml version="1.0" encoding="utf-8"?>
<!DOCTYPE svg PUBLIC "-//W3C//DTD SVG 1.1//EN" "http://www.w3.org/Graphics/SVG/1.1/DTD/svg11.dtd">
<svg style="width:308px;height:308px;" version="1.1" id="图形" xmlns="http://www.w3.org/2000/svg" xmlns:xlink="http://www.w3.org/1999/xlink" x="0px" y="0px" width="1024px" height="1024px" viewBox="0 0 1024 1024" enable-background="new 0 0 1024 1024" xml:space="preserve">
  <path class="svgpath" data-index="path_0" fill="#272636" d="M529.216 15.424c-201.28 0-364.608 166.336-364.608 371.968 0 78.592 24.064 151.68 64.96 211.712 1.984 3.456 3.776 6.848 6.208 9.92l248.32 319.04c12.416 16.704 28.8 24.704 45.184 24.704s32.704-8 45.12-24.704l248.384-319.04c2.304-3.072 4.16-6.4 5.952-9.536 41.024-60.224 65.152-133.184 65.152-212.032C893.76 181.76 730.624 15.424 529.216 15.424L529.216 15.424 529.216 15.424zM768.832 556.864l-1.856 2.816L765.376 562.56 764.16 564.608 529.216 866.56 294.272 564.608l-1.472-2.56L291.2 559.104 289.472 556.8c-34.048-49.92-51.968-108.672-51.968-169.408 0-164.288 130.752-297.6 291.648-297.6s291.648 133.312 291.648 297.6C820.8 448.064 802.88 506.944 768.832 556.864L768.832 556.864 768.832 556.864zM529.216 238.592C448.64 238.592 383.36 305.28 383.36 387.456c0 82.048 65.28 148.8 145.856 148.8s145.856-66.752 145.856-148.8C675.072 305.28 609.728 238.592 529.216 238.592L529.216 238.592 529.216 238.592zM529.216 461.888c-40.192 0-72.96-33.344-72.96-74.432 0-41.152 32.704-74.368 72.96-74.368s72.96 33.216 72.96 74.368C602.112 428.48 569.408 461.888 529.216 461.888L529.216 461.888 529.216 461.888zM724.736 868.864" />

</svg>
