<?xml version="1.0" encoding="utf-8"?>
<!DOCTYPE svg PUBLIC "-//W3C//DTD SVG 1.1//EN" "http://www.w3.org/Graphics/SVG/1.1/DTD/svg11.dtd">
<svg style="width:308px;height:308px;" version="1.1" id="图形" xmlns="http://www.w3.org/2000/svg" xmlns:xlink="http://www.w3.org/1999/xlink" x="0px" y="0px" width="1053px" height="1024px" viewBox="0 0 1053 1024" enable-background="new 0 0 1053 1024" xml:space="preserve">
  <path class="svgpath" data-index="path_0" fill="#272636" d="M578.45211 455.111111 578.45211 56.880563C578.45211 25.312501 552.982087 0 521.563221 0 489.925308 0 464.674332 25.466294 464.674332 56.880563L464.674332 455.111111 66.443785 455.111111C34.875722 455.111111 9.563221 480.581134 9.563221 512 9.563221 543.637914 35.029515 568.888889 66.443785 568.888889L464.674332 568.888889 464.674332 967.119437C464.674332 998.687499 490.144356 1024 521.563221 1024 553.201135 1024 578.45211 998.533706 578.45211 967.119437L578.45211 568.888889 976.682658 568.888889C1008.250721 568.888889 1033.563221 543.418866 1033.563221 512 1033.563221 480.362086 1008.096927 455.111111 976.682658 455.111111L578.45211 455.111111Z" />

</svg>
