<?xml version="1.0" encoding="utf-8"?>
<!DOCTYPE svg PUBLIC "-//W3C//DTD SVG 1.1//EN" "http://www.w3.org/Graphics/SVG/1.1/DTD/svg11.dtd">
<svg style="width:308px;height:308px;" version="1.1" id="图形" xmlns="http://www.w3.org/2000/svg" xmlns:xlink="http://www.w3.org/1999/xlink" x="0px" y="0px" width="1024px" height="1024px" viewBox="0 0 1024 1024" enable-background="new 0 0 1024 1024" xml:space="preserve">
  <path class="svgpath" data-index="path_0" fill="#272636" d="M940.613632 340.767744 543.599616 204.258304c-24.747008-8.96-19.556352-9.017344-44.105728-0.130048L100.081664 339.540992c-24.548352 8.886272-24.388608 23.351296 0.3584 32.309248l94.910464 32.190464c-42.025984 40.727552-44.751872 83.069952-45.31712 132.168704-16.246784 6.259712-27.772928 22.006784-27.772928 40.45312 0 16.94208 9.720832 31.603712 23.883776 38.735872-6.730752 49.883136-25.991168 106.871808-82.586624 174.398464 27.995136 21.675008 42.445824 28.899328 64.120832 36.123648 79.115264-33.97632 69.496832-124.302336 63.337472-214.146048 10.867712-7.872512 17.943552-20.661248 17.943552-35.111936 0-15.486976-8.129536-29.07136-20.34688-36.737024 1.406976-48.10752 11.885568-91.144192 47.849472-118.990848 0.29696-0.736256 1.13152-1.412096 2.68288-2.03264l272.93184-110.309376c10.120192-4.06016 21.615616 0.857088 25.675776 10.97728l0.357376 0.898048c4.06016 10.119168-0.85504 21.61664-10.9824 25.669632l-230.65088 92.210176 206.40256 70.011904c24.745984 8.957952 19.551232 9.015296 44.100608 0.129024l393.993216-135.414784C965.522432 364.19072 965.36064 349.725696 940.613632 340.767744L940.613632 340.767744zM502.249472 560.740352 252.41088 476.050432l0 63.695872c13.059072 11.963392 20.268032 29.1328 20.268032 48.205824 0 17.154048-5.994496 32.756736-16.115712 44.429312 3.310592 10.001408 9.07776 19.775488 17.319936 22.851584 145.399808 80.376832 346.377216 79.473664 508.033024-8.127488 11.988992-9.980928 21.259264-22.34368 21.259264-34.320384L803.175424 472.495104 546.542592 560.869376C521.998336 569.755648 526.99648 569.698304 502.249472 560.740352L502.249472 560.740352zM502.249472 560.740352" />

</svg>
