<?xml version="1.0" encoding="utf-8"?>
<!DOCTYPE svg PUBLIC "-//W3C//DTD SVG 1.1//EN" "http://www.w3.org/Graphics/SVG/1.1/DTD/svg11.dtd">
<svg style="width:308px;height:308px;" version="1.1" id="图形" xmlns="http://www.w3.org/2000/svg" xmlns:xlink="http://www.w3.org/1999/xlink" x="0px" y="0px" width="1024px" height="1024px" viewBox="0 0 1024 1024" enable-background="new 0 0 1024 1024" xml:space="preserve">
  <path class="svgpath" data-index="path_0" fill="#272636" d="M707.392 93.355c-77.264 0-149.104 38.759-196.389 102.673-47.258-63.929-119.083-102.673-196.389-102.673-139.281 0-252.596 123.888-252.596 276.181 0 90.853 40.585 154.588 73.209 205.797 94.816 148.743 333.217 333.849 343.314 341.653 9.727 7.52 21.1 11.282 32.447 11.282 11.373 0 22.73-3.761 32.447-11.282 10.11-7.804 248.524-192.91 343.313-341.653 32.64-51.209 73.238-114.944 73.238-205.797-0.001-152.292-113.316-276.181-252.596-276.181zM840.628 540.182c-90.254 141.629-329.64 326.614-329.64 326.614s-239.359-184.986-329.641-326.614c-33.296-52.287-63.11-101.983-63.11-170.647 0-118.568 87.912-214.725 196.376-214.725 80.155 0 148.967 52.588 179.494 127.875v-0.375h0.082c2.274 7.851 8.905 13.575 16.798 13.575 7.921 0 14.552-5.723 16.812-13.575h0.232c30.597-75.062 99.313-127.499 179.359-127.499 108.438 0 196.376 96.157 196.376 214.725 0 68.663-29.816 118.359-63.14 170.647z" />

</svg>
