<?xml version="1.0" encoding="utf-8"?>
<!DOCTYPE svg PUBLIC "-//W3C//DTD SVG 1.1//EN" "http://www.w3.org/Graphics/SVG/1.1/DTD/svg11.dtd">
<svg style="width:308px;height:308px;" version="1.1" id="图形" xmlns="http://www.w3.org/2000/svg" xmlns:xlink="http://www.w3.org/1999/xlink" x="0px" y="0px" width="1024px" height="1024px" viewBox="0 0 1024 1024" enable-background="new 0 0 1024 1024" xml:space="preserve">
  <path class="svgpath" data-index="path_0" fill="#272636" d="M64.816215 750.578724" />
<path class="svgpath" data-index="path_1" fill="#272636" d="M352.093057 173.568081c-14.307867-20.458961-36.145222-49.783847-58.858526-73.347518-24.857131-25.77606-43.409672-37.271882-60.167335-37.271882-33.499975 0-77.731362 43.054585-107.960851 83.347267-18.942421 25.27464-63.020312 90.654696-63.020312 151.712307 0 57.320497 38.593993 131.990127 70.967308 184.5369 43.674709 70.862931 104.078427 147.182131 170.07656 214.906581l21.559015 21.566178c67.947532 66.207911 144.272871 126.604466 215.10101 170.250522 52.53961 32.380478 127.181611 70.981634 184.5369 70.981634 61.08524 0 126.443807-44.077891 151.718447-63.027475 40.292682-30.216185 83.340103-74.439386 83.340103-107.953687 0-16.750499-11.495822-35.30918-37.271882-60.167335-23.521716-22.685675-52.874231-44.537356-73.347518-58.872852-27.446096-19.22076-56.228629-37.021172-81.043804-50.125631-39.359426-20.765953-55.81112-23.166629-64.759933-23.166629-17.327644 0-32.512485 9.255805-45.108361 27.501354-8.699126 12.603039-15.35164 27.988448-21.795399 42.874483-5.929036 13.723559-12.136412 27.640524-17.105586 33.897018l-2.115174 2.65855-3.298116-0.785899c-5.344728-1.25969-26.248827-7.738241-70.703295-38.016849-35.198663-23.974018-73.444732-55.05899-102.310154-83.152838-28.141944-28.907377-59.234079-67.153446-83.257216-102.401228-30.271444-44.481074-36.757159-65.36573-38.024012-70.703295l-0.779759-3.298116 2.644223-2.109034c6.708795-5.351891 22.895453-12.359492 33.611515-17.000186 15.309684-6.639211 30.633694-13.270235 43.173289-21.920242 18.246573-12.58155 27.501354-27.759227 27.501354-45.1145 0-8.948813-2.407839-25.400506-23.173792-64.745606C389.156184 229.845829 371.355773 201.056132 352.093057 173.568081zM381.459898 321.933153c-1.391696 2.052752-4.676509 5.462408-12.400425 10.05603-8.879228 5.29561-20.682042 10.382465-31.092136 14.871709-13.458523 5.838985-27.000957 11.704576-37.676088 18.788925-16.659425 11.023054-24.941042 24.349571-24.606421 39.610136 0.153496 7.835456 0.64059 31.66314 46.110177 98.413404 25.428136 37.321 58.371432 77.821413 88.142479 108.35073 30.912034 30.146601 71.412446 63.09706 108.726284 88.518033 66.708308 45.434795 90.563622 45.936215 98.399077 46.103014 0.014326 0 0.014326 0 0.014326 0 15.838733 0 28.935006-8.364505 39.776935-24.857131 7.014764-10.647501 12.83226-24.098861 18.46863-37.105083 4.885264-11.301394 9.783831-22.650883 15.031345-31.426757 4.564969-7.641027 7.961322-10.939143 10.006911-12.365632l1.753947-1.217734 2.115174 0.327458c3.869121 0.598634 15.782451 3.52836 42.783409 17.717524 21.795399 11.45489 47.515177 27.223015 72.415286 44.398186 65.62258 45.275159 91.663676 75.92932 96.256274 85.810365l0.862647 1.865487-0.598634 1.962701c-0.779759 2.512217-4.370541 11.941983-18.204617 27.90556-12.777001 14.738679-30.535457 30.772864-50.021254 45.13599-44.648896 32.895201-90.772376 52.53347-123.396401 52.53347-36.33965 0-95.393627-23.542182-162.004721-64.593134-68.197218-42.017976-141.837402-100.313683-207.362768-164.147524l-0.041956-0.049119-21.113877-21.106714c-63.910589-65.609277-122.199133-139.248438-164.203806-207.404724-41.043788-66.618257-64.593134-125.671211-64.593134-162.018024 0-32.630165 19.638269-78.754668 52.53961-123.389238 14.377452-19.4991 30.396287-37.271882 45.13599-50.027393 15.991206-13.862729 25.413809-17.439184 27.918863-18.197454l1.962701-0.605797 1.851161 0.86981c9.882068 4.599761 40.542368 30.639834 85.804225 96.249111 17.160845 24.88476 32.929993 50.598398 44.398186 72.408123 14.168698 26.966165 17.105586 38.907125 17.703197 42.790572l0.333598 2.080382L381.459898 321.933153z" />

</svg>
