<?xml version="1.0" encoding="utf-8"?>
<!DOCTYPE svg PUBLIC "-//W3C//DTD SVG 1.1//EN" "http://www.w3.org/Graphics/SVG/1.1/DTD/svg11.dtd">
<svg style="width:308px;height:308px;" version="1.1" id="图形" xmlns="http://www.w3.org/2000/svg" xmlns:xlink="http://www.w3.org/1999/xlink" x="0px" y="0px" width="1024px" height="1024px" viewBox="0 0 1024 1024" enable-background="new 0 0 1024 1024" xml:space="preserve">
  <path class="svgpath" data-index="path_0" fill="#272636" d="M951.172321 668.88205l-18.047028 0c10.468422-4.837168 17.748223-15.331173 17.748223-27.622104l0.025583 0L950.899098 194.752566c-0.025583-16.85283-13.68672-30.488385-30.537504-30.513968L478.064097 164.238598c-16.875343 0-30.537504 13.662161-30.537504 30.513968l0 59.925834c-2.690272-10.468422-12.137435-18.296715-23.430642-18.296715L253.538437 236.381685c-13.334703 0-31.009248 8.576329-39.284725 19.044752L115.53741 380.713908c-8.252964 10.519588-15.006785 30.013571-15.006785 43.351344l0 208.42189-8.625448 0c-15.505136 0-28.069289 12.564154-28.069289 28.068266l0 58.380642c0 15.505136 12.564154 28.069289 28.069289 28.069289l48.583508 0c9.697873 2.891863 20.765953 3.489474 28.893051 0.673335-1.048889 52.822043 36.992519 99.588159 90.636277 107.863636 58.482973 9.023514 113.173572-31.060413 122.197086-89.541339 1.373277-8.823969 1.496074-17.549701 0.698918-26.074865 18.894326 9.322319 51.42523 5.832845 50.477648-9.373485-0.099261-0.748037-0.273223-1.496074-0.372483-2.24411l164.749228 0c-0.176009 15.655562 31.834033 25.475208 49.482995 19.36914-1.048889 52.822043 37.018102 99.588159 90.661859 107.863636 58.480926 9.023514 113.173572-31.060413 122.197086-89.541339 1.37123-8.823969 1.470491-17.549701 0.722454-26.074865 18.871813 9.322319 51.401694 5.832845 50.455135-9.373485-0.099261-0.748037-0.273223-1.496074-0.372483-2.24411l40.256866 0c3.342118 0 6.082532-2.715855 6.082532-6.031367L957.254853 674.965605C957.255877 671.623487 954.514439 668.88205 951.172321 668.88205zM463.580221 367.102912l241.404072 0 0 232.378511c-31.258934 10.246365-58.679447 29.888727-78.148871 56.239885L478.064097 655.721309c-8.000208 0-14.483876-6.483668-14.483876-14.46034L463.580221 367.102912zM920.362618 655.721309l-39.037085 0c-24.180725-32.706913-60.775178-56.239885-104.223736-62.570058-2.218528-0.349971-4.41352-0.398066-6.606465-0.648776L770.495332 367.102912l164.350139 0 0 274.157034C934.820911 649.237641 928.364873 655.721309 920.362618 655.721309zM934.846494 194.752566l0 106.74107L770.495332 301.493635 770.495332 180.294272l149.867286 0C928.33929 180.294272 934.820911 186.775894 934.846494 194.752566zM478.064097 180.294272l226.921219 0 0 121.19834L463.580221 301.492612l0-106.74107C463.580221 186.775894 470.063889 180.294272 478.064097 180.294272zM381.592928 512.033769l-38.411845 0c-8.425903 0-15.257495-0.995677-15.257495-8.324596 0-7.305383 6.830569-18.171871 15.257495-18.171871l38.411845 0c8.400321 0 15.231913 10.866489 15.231913 18.171871C396.823817 511.038092 389.993249 512.033769 381.592928 512.033769zM134.033669 421.247066c0-10.021238 0.696872-12.914124 6.955412-20.74037l93.030813-115.590622c6.256494-7.803733 19.568684-14.210653 29.589922-14.210653l113.77016 0c10.021238 0 18.197454 8.201799 18.197454 18.223037l0 148.869562c0 9.995655-8.176217 18.197454-18.197454 18.197454L149.863193 455.995475c-9.995655 0-15.8285-5.258771-15.8285-15.254425L134.034692 421.247066zM337.695139 759.12026c-5.235235 33.904181-36.944424 57.109696-70.819952 51.900044-33.878598-5.233188-57.0616-36.941354-51.851948-70.794369 5.209652-33.875528 36.918841-57.109696 70.797439-51.900044C319.696206 693.561126 342.930373 725.269291 337.695139 759.12026zM815.59039 759.12026c-5.209652 33.904181-36.918841 57.109696-70.819952 51.900044-33.853016-5.233188-57.087183-36.941354-51.851948-70.794369 5.235235-33.875528 36.944424-57.109696 70.797439-51.900044C797.591457 693.561126 820.800042 725.269291 815.59039 759.12026z" />

</svg>
