<?xml version="1.0" encoding="utf-8"?>
<!DOCTYPE svg PUBLIC "-//W3C//DTD SVG 1.1//EN" "http://www.w3.org/Graphics/SVG/1.1/DTD/svg11.dtd">
<svg style="width:308px;height:308px;" version="1.1" id="图形" xmlns="http://www.w3.org/2000/svg" xmlns:xlink="http://www.w3.org/1999/xlink" x="0px" y="0px" width="1024px" height="1024px" viewBox="0 0 1024 1024" enable-background="new 0 0 1024 1024" xml:space="preserve">
  <path class="svgpath" data-index="path_0" fill="#272636" d="M600.827071 44.178175c-176.119183 0-319.471079 143.17384-319.471079 319.071989 0 78.745459 28.670993 150.331867 75.771731 206.578915l-101.370759 102.267175L147.21897 563.693336c-10.239202-10.226922-26.622334-10.226922-35.83823 0-10.239202 10.226922-10.239202 26.589588 0 35.793204l107.514689 109.425202L110.357434 818.336944c-10.239202 10.226922-10.239202 26.589588 0 35.793204 10.239202 10.226922 26.622334 10.226922 35.83823 0l108.537995-109.425202 109.562325 110.448508c10.239202 10.226922 26.622334 10.226922 35.83823 0 10.239202-10.226922 10.239202-26.589588 0-35.793204L291.595194 708.911742l101.370759-102.267175c56.316633 48.065715 129.017422 76.699869 207.861118 76.699869 177.142489 0 320.495408-143.17384 320.495408-320.094272C921.322479 187.352015 777.969561 44.178175 600.827071 44.178175L600.827071 44.178175zM600.827071 632.211872c-148.47252 0-269.297352-120.674407-269.297352-268.961708 0-148.286278 120.825856-267.938402 269.297352-267.938402s269.297352 119.652124 269.297352 267.938402C870.125447 512.559748 749.299591 632.211872 600.827071 632.211872L600.827071 632.211872z" />

</svg>
