<?xml version="1.0" encoding="utf-8"?>
<!DOCTYPE svg PUBLIC "-//W3C//DTD SVG 1.1//EN" "http://www.w3.org/Graphics/SVG/1.1/DTD/svg11.dtd">
<svg style="width:308px;height:308px;" version="1.1" id="图形" xmlns="http://www.w3.org/2000/svg" xmlns:xlink="http://www.w3.org/1999/xlink" x="0px" y="0px" width="1024px" height="1024px" viewBox="0 0 1024 1024" enable-background="new 0 0 1024 1024" xml:space="preserve">
  <path class="svgpath" data-index="path_0" fill="#272636" d="M160 704c0 38.396 27.728 49.062 53.334 72.542l0 76.792c0 23.458 19.198 42.668 42.666 42.668l42.666 0c23.468 0 42.668-19.208 42.668-42.668l0-42.666 341.332 0 0 42.666c0 23.458 19.208 42.668 42.668 42.668L768 896.002c23.458 0 42.666-19.208 42.666-42.668l0-76.792C836.272 753.062 864 740.272 864 704L864 296.668C864 147.334 699.728 128 512 128S160 147.334 160 296.668L160 704zM320 735.978c-36.272 0-64-27.728-64-64 0-36.27 27.728-64 64-64s64 27.73 64 64C384 708.25 356.272 735.978 320 735.978zM704 735.978c-36.272 0-64-27.728-64-64 0-36.27 27.728-64 64-64s64 27.73 64 64C768 708.25 740.272 735.978 704 735.978zM768 490.666 256 490.666 256 277.334l512 0L768 490.666z" />

</svg>
