<?xml version="1.0" encoding="utf-8"?>
<!DOCTYPE svg PUBLIC "-//W3C//DTD SVG 1.1//EN" "http://www.w3.org/Graphics/SVG/1.1/DTD/svg11.dtd">
<svg style="width:308px;height:308px;" version="1.1" id="图形" xmlns="http://www.w3.org/2000/svg" xmlns:xlink="http://www.w3.org/1999/xlink" x="0px" y="0px" width="1024px" height="1024px" viewBox="0 0 1024 1024" enable-background="new 0 0 1024 1024" xml:space="preserve">
  <path class="svgpath" data-index="path_0" fill="#272636" d="M65.007061 551.08211c0-37.790698 7.401574-73.888847 22.205745-108.295472 14.803147-34.406624 34.628682-64.050782 59.476603-88.934518 24.846898-24.883737 54.491055-44.709271 88.934518-59.47558 34.443463-14.767332 70.541613-22.168905 108.295472-22.205745l334.760297 0c37.790698 0 73.889871 7.401574 108.293425 22.205745 34.406624 14.803147 64.052828 34.628682 88.934518 59.47558 24.885783 24.845874 44.710294 54.491055 59.476603 88.934518 14.768355 34.443463 22.168905 70.541613 22.205745 108.295472 0.036839 37.752836-7.363711 73.852008-22.205745 108.296495-14.84101 34.440393-34.665521 64.086597-59.476603 88.931448-24.809035 24.846898-54.453193 44.673455-88.934518 59.47558-34.478256 14.806217-70.578452 22.206768-108.293425 22.206768L343.917352 829.992401c-37.790698 0-73.888847-7.40055-108.295472-22.206768-34.406624-14.802124-64.050782-34.628682-88.934518-59.47558-24.88476-24.844851-44.709271-54.491055-59.476603-88.931448C72.445474 624.934119 65.0439 588.834946 65.007061 551.08211L65.007061 551.08211zM678.732907 774.254959c30.241768 0 59.0857-5.875824 86.536912-17.630542 27.449165-11.753695 51.199079-27.65485 71.246671-47.703465 20.048615-20.046568 35.950793-43.796482 47.702442-71.247694 11.755742-27.450189 17.631566-56.296167 17.631566-86.534865 0-30.240745-5.875824-59.0857-17.631566-86.535889-11.751648-27.451212-27.653827-51.200102-47.702442-71.247694-20.047592-20.048615-43.797505-35.94977-71.246671-47.703465-27.451212-11.753695-56.297191-17.630542-86.536912-17.630542-30.239721 0-59.084677 5.877871-86.535889 17.630542-27.449165 11.753695-51.198056 27.65485-71.245647 47.703465-20.049638 20.048615-35.950793 43.797505-47.704488 71.247694-11.754718 27.450189-17.630542 56.295144-17.630542 86.535889 0 30.239721 5.877871 59.084677 17.630542 86.534865 11.752672 27.451212 27.65485 51.201126 47.704488 71.247694 20.047592 20.048615 43.796482 35.94977 71.245647 47.703465C619.64823 768.379135 648.494209 774.254959 678.732907 774.254959L678.732907 774.254959z" />

</svg>
