<?xml version="1.0" encoding="utf-8"?>
<!DOCTYPE svg PUBLIC "-//W3C//DTD SVG 1.1//EN" "http://www.w3.org/Graphics/SVG/1.1/DTD/svg11.dtd">
<svg style="width:308px;height:308px;" version="1.1" id="图形" xmlns="http://www.w3.org/2000/svg" xmlns:xlink="http://www.w3.org/1999/xlink" x="0px" y="0px" width="1064px" height="1024px" viewBox="0 0 1064 1024" enable-background="new 0 0 1064 1024" xml:space="preserve">
  <path class="svgpath" data-index="path_0" fill="#54c5ff" d="M12.593 575.693c-0.306-17.079 2.658-34.265 8.898-50.428 6.034-15.757 15.134-30.482 27.313-43.167l389.807-406.58c24.034-23.011 54.723-34.57 85.306-34.57s61.265 11.556 85.306 34.57l0.407 0.306 2.965 2.965 0.306 0.407 386.122 402.899c12.071 12.579 21.172 27.313 27.211 43.056v0c6.242 16.164 9.209 33.444 8.898 50.525l-0.512 28.538h-136.65v286.599c0 26.389-10.434 50.525-27.105 68.123-17.079 17.9-40.704 29.052-66.785 29.052h-202.629v-270.028h-155.164v270.028h-202.629c-26.079 0-49.711-11.149-66.785-29.052-16.672-17.597-27.105-41.731-27.105-68.123v-286.599h-136.65l-0.512-28.538zM75.294 545.83l-0.206 0.407h132.459v344.494c0 11.149 4.295 21.172 11.044 28.333 6.442 6.747 15.337 11.044 24.957 11.044h144.738v-230.649c0-10.537 4.189-20.144 10.943-27.211 7.061-7.465 16.983-12.071 27.922-12.071h193.415c10.943 0 20.86 4.597 27.922 12.071 6.747 7.061 10.943 16.672 10.943 27.211v230.649h144.738c9.717 0 18.511-4.189 24.957-11.044 6.859-7.158 11.044-17.185 11.044-28.333v-344.494h132.459l-0.102-0.306v-0.102c-3.271-8.594-8.289-16.672-15.037-23.73l-388.686-405.453c-12.683-11.867-28.742-17.9-44.902-17.9s-32.218 5.93-44.902 17.9v0l-2.965 2.965-385.712 402.485c-6.747 7.061-11.762 15.134-15.037 23.73z" />
<path class="svgpath" data-index="path_1" fill="#54c5ff" d="M265.953 530.587c-13.297 0-24.135-10.837-24.135-24.135s10.837-24.135 24.135-24.135h180.018c13.297 0 24.135 10.837 24.135 24.135s-10.837 24.135-24.135 24.135h-180.018z" />
<path class="svgpath" data-index="path_2" fill="#54c5ff" d="M611.261 530.587c-13.297 0-24.135-10.837-24.135-24.135s10.837-24.135 24.135-24.135h180.018c13.297 0 24.135 10.837 24.135 24.135s-10.837 24.135-24.135 24.135h-180.018z" />

</svg>
