<?xml version="1.0" encoding="utf-8"?>
<!DOCTYPE svg PUBLIC "-//W3C//DTD SVG 1.1//EN" "http://www.w3.org/Graphics/SVG/1.1/DTD/svg11.dtd">
<svg style="width:308px;height:308px;" version="1.1" id="图形" xmlns="http://www.w3.org/2000/svg" xmlns:xlink="http://www.w3.org/1999/xlink" x="0px" y="0px" width="1024px" height="1024px" viewBox="0 0 1024 1024" enable-background="new 0 0 1024 1024" xml:space="preserve">
  <path class="svgpath" data-index="path_0" fill="#666666" d="M698.736497 573.517075c52.604078-49.873897 85.449137-120.571053 85.449137-198.989053 0-151.058414-121.872698-273.53384-272.187169-273.53384-150.330844 0-272.184099 122.475426-272.184099 273.53384 0 78.419024 32.839943 149.117203 85.442998 198.990077C171.551656 613.703333 64.836169 701.954283 64.836169 804.366767c0 140.277884 200.208834 117.227911 447.162296 117.227911 246.955508 0 447.163319 23.049972 447.163319-117.227911C959.161784 701.95326 852.445274 613.701287 698.736497 573.517075zM511.998465 862.980723c-214.751039 0-388.835889 39.076994-388.835889-72.142064s174.08485-201.3928 388.835889-201.3928c-118.112048 0-213.858716-96.219435-213.858716-214.917838 0-118.697379 95.746668-214.918861 213.858716-214.918861 118.114095 0 213.861786 96.221482 213.861786 214.918861 0 118.698402-95.747691 214.917838-213.861786 214.917838 214.754109 0 388.837936 90.173742 388.837936 201.3928S726.752574 862.980723 511.998465 862.980723z" />

</svg>
